<svg width="40" height="40" viewBox="0 0 40 40" fill="none" xmlns="http://www.w3.org/2000/svg">
<path id="Union" fill-rule="evenodd" clip-rule="evenodd" d="M30 2C30 0.89543 29.1046 0 28 0C26.8954 0 26 0.89543 26 2V3.60156H13.998V2C13.998 0.89543 13.1026 0 11.998 0C10.8935 0 9.99805 0.89543 9.99805 2V3.60156H6.00006C2.88987 3.60156 0 5.91557 0 9.20138V16.3994V34.4001C0 37.6859 2.88987 39.9999 6.00006 39.9999H34.0005C37.1106 39.9999 40.0005 37.6859 40.0005 34.4001V16.3994V9.20138C40.0005 5.91557 37.1106 3.60156 34.0005 3.60156H30V2ZM36.0005 14.3994V9.20138C36.0005 8.51094 35.3086 7.60156 34.0005 7.60156H30V9.20125C30 10.3058 29.1046 11.2013 28 11.2013C26.8954 11.2013 26 10.3058 26 9.20125V7.60156H13.998V9.20125C13.998 10.3058 13.1026 11.2013 11.998 11.2013C10.8935 11.2013 9.99805 10.3058 9.99805 9.20125V7.60156H6.00006C4.6919 7.60156 4 8.51094 4 9.20138V14.3994H36.0005ZM4 18.3994H36.0005V34.4001C36.0005 35.0905 35.3086 35.9999 34.0005 35.9999H6.00006C4.6919 35.9999 4 35.0905 4 34.4001V18.3994Z" fill="black"/>
</svg>
