<svg width="16" height="16" viewBox="0 0 16 16" fill="none" xmlns="http://www.w3.org/2000/svg">
<path id="Union" fill-rule="evenodd" clip-rule="evenodd" d="M15.0607 3.06069C15.6464 2.4749 15.6464 1.52516 15.0607 0.93937C14.4749 0.353584 13.5251 0.353584 12.9393 0.93937L8 5.87871L3.06066 0.93937C2.47487 0.353584 1.52513 0.353584 0.93934 0.93937C0.353553 1.52516 0.353553 2.4749 0.93934 3.06069L5.87868 8.00003L0.93934 12.9394C0.353553 13.5252 0.353553 14.4749 0.93934 15.0607C1.52513 15.6465 2.47487 15.6465 3.06066 15.0607L8 10.1214L12.9393 15.0607C13.5251 15.6465 14.4749 15.6465 15.0607 15.0607C15.6464 14.4749 15.6464 13.5252 15.0607 12.9394L10.1213 8.00003L15.0607 3.06069Z" fill="#EA1840"/>
</svg>
