<svg width="43" height="43" viewBox="0 0 43 43" fill="none" xmlns="http://www.w3.org/2000/svg">
<path id="Union" fill-rule="evenodd" clip-rule="evenodd" d="M4 21.0324C4 11.6448 11.6113 4.03418 21.0009 4.03418C30.3905 4.03418 38.0018 11.6448 38.0018 21.0324C38.0018 30.42 30.3905 38.0306 21.0009 38.0306C11.6113 38.0306 4 30.42 4 21.0324ZM21.0009 0.0341797C9.40267 0.0341797 0 9.43515 0 21.0324C0 32.6297 9.40267 42.0306 21.0009 42.0306C32.5991 42.0306 42.0018 32.6297 42.0018 21.0324C42.0018 9.43515 32.5991 0.0341797 21.0009 0.0341797ZM22.998 9.63477C22.998 8.5302 22.1026 7.63477 20.998 7.63477C19.8935 7.63477 18.998 8.5302 18.998 9.63477V21.0337C18.998 21.7913 19.4261 22.4838 20.1037 22.8226L27.7041 26.6223C28.6921 27.1162 29.8934 26.7157 30.3873 25.7277C30.8812 24.7397 30.4807 23.5384 29.4927 23.0444L22.998 19.7976V9.63477Z" fill="black"/>
</svg>
