<svg width="80" height="80" viewBox="0 0 80 80" fill="none" xmlns="http://www.w3.org/2000/svg">
<path id="Union" fill-rule="evenodd" clip-rule="evenodd" d="M76.3558 56.6825L76.1591 56.6474L76.3853 56.6186C76.3756 56.6399 76.3658 56.6612 76.3558 56.6825ZM51.9222 73.4795C48.1953 74.8052 44.182 75.527 40 75.527C20.3631 75.527 4.44444 59.6143 4.44444 39.9849C4.44444 20.3554 20.3631 4.44276 40 4.44276C59.6369 4.44276 75.5556 20.3554 75.5556 39.9849C75.5556 41.1053 75.5038 42.2136 75.4022 43.3076L79.9071 42.7318C79.9687 41.8242 80 40.9081 80 39.9849C80 17.9019 62.0913 0 40 0C17.9087 0 0 17.9019 0 39.9849C0 62.0678 17.9087 79.9697 40 79.9697C45.9122 79.9697 51.5247 78.6875 56.5747 76.3862L51.9222 73.4795ZM27.9002 27.0298C26.9655 26.4069 25.7126 26.5793 24.9811 27.4316C24.2495 28.284 24.2693 29.5479 25.0273 30.377C25.7861 31.2068 26.8 31.9909 27.5583 32.5773L27.562 32.5801L27.5753 32.5904C27.7652 32.7372 27.9386 32.8712 28.0873 32.9904C28.2629 33.1308 28.4104 33.2536 28.534 33.3616C28.4266 33.4556 28.2995 33.5615 28.1502 33.681C27.9757 33.8209 27.7596 33.9854 27.5185 34.1689L27.518 34.1693L27.517 34.1701L27.5165 34.1705L27.502 34.1815L27.4994 34.1835L27.4992 34.1836L27.4991 34.1837L27.499 34.1837L27.499 34.1838L27.4989 34.1839C26.7651 34.7427 25.8067 35.4725 25.0853 36.2039C24.2851 37.0151 24.2284 38.2997 24.954 39.1781C25.6795 40.0564 26.952 40.2439 27.9002 39.6121L34.5669 35.1691C35.1851 34.7573 35.5564 34.0638 35.5564 33.321C35.5564 32.5781 35.1851 31.8846 34.5669 31.4725L27.9002 27.0298ZM63.9113 27.4316C63.1797 26.5793 61.9268 26.4069 60.9922 27.0298L54.3255 31.4725C53.7073 31.8846 53.3359 32.5781 53.3359 33.321C53.3359 34.0638 53.7073 34.7573 54.3255 35.1691L60.9922 39.6121C61.9404 40.2439 63.2128 40.0564 63.9384 39.1781C64.6639 38.2997 64.6073 37.0151 63.8071 36.2039C63.0855 35.4724 62.1271 34.7425 61.3932 34.1837L61.3931 34.1836L61.3904 34.1815L61.3763 34.1708C61.1342 33.9865 60.9172 33.8214 60.7422 33.681C60.5928 33.5615 60.4657 33.4556 60.3584 33.3616C60.4819 33.2536 60.6295 33.1308 60.805 32.9904C60.9539 32.8712 61.1273 32.7371 61.3174 32.5902L61.3304 32.5801L61.334 32.5773L61.3341 32.5772C62.0924 31.9909 63.1063 31.2068 63.865 30.377C64.623 29.5479 64.6428 28.284 63.9113 27.4316ZM53.3316 55.5345C53.3316 60.4417 49.3518 64.42 44.4427 64.42C39.5336 64.42 35.5538 60.4417 35.5538 55.5345C35.5538 50.6272 39.5336 46.6489 44.4427 46.6489C49.3518 46.6489 53.3316 50.6272 53.3316 55.5345ZM57.776 55.5345C57.776 62.8955 51.8065 68.8627 44.4427 68.8627C37.0789 68.8627 31.1094 62.8955 31.1094 55.5345C31.1094 48.1735 37.0789 42.2062 44.4427 42.2062C51.8065 42.2062 57.776 48.1735 57.776 55.5345ZM79.9779 54.4788C79.9523 55.7152 78.9472 56.6448 77.733 56.5555L74.2892 56.3016C73.075 56.2121 72.1114 55.1374 72.1372 53.901C72.1628 52.6648 73.1677 51.7351 74.3819 51.8244L77.8259 52.0783C79.0399 52.1676 80.0034 53.2426 79.9779 54.4788ZM67.1864 55.7784C68.4004 55.868 69.4055 54.9383 69.4311 53.7019C69.4569 52.4655 68.4933 51.3908 67.2791 51.3013L64.7298 51.1135C63.5155 51.024 62.5107 51.9537 62.4849 53.1901C62.4593 54.4263 63.4229 55.5012 64.6371 55.5905L67.1864 55.7784ZM65.713 71.2659C66.5753 70.4391 67.9675 70.5175 68.8226 71.4412L72.955 75.9039C73.8104 76.8274 73.8046 78.2464 72.9424 79.0732C72.0802 79.9 70.6879 79.8213 69.8328 78.8979L65.7002 74.4351C64.845 73.5117 64.8506 72.0927 65.713 71.2659ZM61.8695 63.9374C61.0144 63.0138 59.6219 62.9354 58.7597 63.7622C57.8975 64.589 57.8919 66.0078 58.7471 66.9314L60.7322 69.075C61.5875 69.9987 62.9797 70.0771 63.842 69.2503C64.7042 68.4235 64.7097 67.0047 63.8546 66.0811L61.8695 63.9374ZM75.1414 65.2436C75.5803 64.1122 76.8541 63.6057 77.9865 64.1122L78.3716 64.2846C79.5041 64.7911 80.0663 66.1188 79.6274 67.2501C79.1885 68.3815 77.9147 68.888 76.7823 68.3815L76.3972 68.2093C75.2647 67.7028 74.7025 66.3751 75.1414 65.2436ZM64.3457 58.0142C63.2134 57.5077 61.9397 58.0142 61.5008 59.1455C61.0619 60.2769 61.6241 61.6048 62.7563 62.1113L70.0268 65.3632C71.159 65.8696 72.4328 65.3632 72.8717 64.2318C73.3105 63.1002 72.7485 61.7725 71.6161 61.266L64.3457 58.0142Z" fill="#4A4A4A"/>
</svg>
