<svg width="21" height="26" viewBox="0 0 21 26" fill="none" xmlns="http://www.w3.org/2000/svg">
<g id="Group 2848">
<path id="Vector" d="M19.8907 10.8182C19.8907 18.4545 10.4453 25 10.4453 25C10.4453 25 1 18.4545 1 10.8182C1 8.21424 1.99513 5.71695 3.76648 3.87568C5.53782 2.03441 7.94028 1 10.4453 1C12.9504 1 15.3529 2.03441 17.1242 3.87568C18.8955 5.71695 19.8907 8.21424 19.8907 10.8182Z" stroke="black" stroke-width="1.5" stroke-linecap="round" stroke-linejoin="round"/>
<path id="Vector_2" d="M10.4453 14.0914C12.1842 14.0914 13.5938 12.6261 13.5938 10.8186C13.5938 9.01115 12.1842 7.5459 10.4453 7.5459C8.70648 7.5459 7.29688 9.01115 7.29688 10.8186C7.29688 12.6261 8.70648 14.0914 10.4453 14.0914Z" stroke="black" stroke-width="1.5" stroke-linecap="round" stroke-linejoin="round"/>
</g>
</svg>
