<svg width="57" height="80" viewBox="0 0 57 80" fill="none" xmlns="http://www.w3.org/2000/svg">
<g id="Group 5813">
<path id="Vector" fill-rule="evenodd" clip-rule="evenodd" d="M38.4844 9.99621C38.4844 15.5169 34.0072 19.9924 28.4844 19.9924C22.9616 19.9924 18.4844 15.5169 18.4844 9.99621C18.4844 4.47546 22.9616 0 28.4844 0C34.0072 0 38.4844 4.47546 38.4844 9.99621ZM34.4844 9.99621C34.4844 13.3088 31.7982 15.9939 28.4844 15.9939C25.1706 15.9939 22.4844 13.3088 22.4844 9.99621C22.4844 6.68377 25.1706 3.99849 28.4844 3.99849C31.7982 3.99849 34.4844 6.68377 34.4844 9.99621Z" fill="#4A4A4A"/>
<path id="Vector_2" d="M14.4863 73.972V59.9773H18.4863V73.972C18.4863 75.0762 19.3817 75.9712 20.4863 75.9712H20.6597C21.6941 75.9712 22.5579 75.1827 22.6515 74.1529L23.9407 59.9773H27.9573L26.6351 74.515C26.6247 74.6293 26.6111 74.7429 26.5945 74.8551C26.5581 75.101 26.5069 75.3417 26.4419 75.5764C25.7351 78.13 23.3965 79.9697 20.6597 79.9697H20.4863C17.1725 79.9697 14.4863 77.2845 14.4863 73.972ZM34.3209 74.1529L33.0317 59.9773H29.0151L30.3373 74.515C30.3477 74.6293 30.3613 74.7429 30.3779 74.8551C30.4143 75.101 30.4655 75.3417 30.5305 75.5764C31.2373 78.13 33.5759 79.9697 36.3127 79.9697H36.4863C39.7999 79.9697 42.4863 77.2845 42.4863 73.972V59.9773H38.4863V73.972C38.4863 75.0762 37.5907 75.9712 36.4863 75.9712H36.3127C35.2783 75.9712 34.4145 75.1827 34.3209 74.1529Z" fill="#4A4A4A"/>
<path id="Vector_3" fill-rule="evenodd" clip-rule="evenodd" d="M2.48438 21.9916C1.37978 21.9916 0.484375 22.8867 0.484375 23.9909V53.9795C0.484375 55.0837 1.37978 55.9788 2.48438 55.9788H54.4844C55.589 55.9788 56.4844 55.0837 56.4844 53.9795V23.9909C56.4844 22.8867 55.589 21.9916 54.4844 21.9916H2.48438ZM4.48438 25.9901V51.9803H19.4844C19.4844 50.8655 20.0026 49.8955 20.5396 49.1825C21.1016 48.4368 21.8436 47.7585 22.6432 47.1853C23.7348 46.403 25.0816 45.7127 26.4844 45.3184V40.9844H24.8844C23.679 40.9844 21.9914 41.7126 20.371 42.6942C19.612 43.154 18.9518 43.6168 18.4812 43.9655C18.2468 44.1389 18.062 44.2822 17.9384 44.38C17.8766 44.4287 17.8304 44.4661 17.8008 44.4901L17.7696 44.5157L17.7642 44.5199C17.7642 44.5199 17.7648 44.5195 16.4844 42.9837C15.204 41.4479 15.2046 41.4473 15.2046 41.4473L15.2072 41.4453L15.212 41.4413L15.227 41.4289L15.2776 41.3875C15.3202 41.3529 15.3804 41.3043 15.457 41.2437C15.6098 41.123 15.8282 40.9539 16.1002 40.7523C16.642 40.3513 17.4068 39.8145 18.2978 39.2747C19.9774 38.2571 22.4898 36.986 24.8844 36.986H26.4844V32.9875H25.4844C24.3462 32.9875 22.8662 33.3857 21.5428 33.8667C20.9084 34.0975 20.3584 34.3288 19.9686 34.5021C19.7742 34.5883 19.6214 34.6594 19.5196 34.7078C19.4688 34.7318 19.4308 34.7502 19.407 34.7618L19.3818 34.7742L19.3784 34.7758C19.3784 34.7758 19.3788 34.7756 18.4844 32.9875C17.59 31.1994 17.5906 31.199 17.5906 31.199L17.5972 31.1958L17.6102 31.1894L17.6532 31.1682C17.6894 31.1506 17.7402 31.126 17.8046 31.0954C17.9334 31.0344 18.1164 30.9492 18.344 30.8481C18.7978 30.6466 19.4354 30.3781 20.176 30.109C21.6026 29.5904 23.6226 28.989 25.4844 28.989H26.4844V25.9901H4.48438ZM30.4844 40.9844H32.6844C34.1822 40.9844 35.7216 41.7168 37.0106 42.621C37.6314 43.0565 38.1414 43.4947 38.494 43.8228C38.6694 43.9857 38.8032 44.1191 38.8896 44.2076C38.9326 44.2518 38.9638 44.2846 38.982 44.3042L38.9992 44.3226C38.9992 44.3226 38.9978 44.3212 40.4844 42.9837C41.971 41.6462 41.9702 41.6454 41.9702 41.6454L41.9672 41.6422L41.9622 41.6366L41.948 41.621L41.9038 41.5734C41.8674 41.5344 41.817 41.4813 41.7536 41.4163C41.6266 41.2861 41.4462 41.107 41.2184 40.8951C40.765 40.4734 40.1124 39.9121 39.3082 39.3479C37.7472 38.2529 35.3866 36.986 32.6844 36.986H30.4844V32.9875H31.9844C33.373 32.9875 34.723 33.3895 35.7708 33.8304C36.285 34.0469 36.7028 34.2626 36.9862 34.4207C37.1274 34.4997 37.2338 34.5633 37.3004 34.6043C37.3338 34.6247 37.357 34.6394 37.3698 34.6476L37.3758 34.6514C37.3758 34.6514 37.375 34.651 38.4844 32.9875C39.5938 31.3239 39.5928 31.3233 39.5928 31.3233L39.5898 31.3213L39.5846 31.3179L39.5708 31.3089L39.53 31.2825C39.497 31.2613 39.4524 31.2331 39.3968 31.199C39.2858 31.1306 39.1304 31.038 38.9356 30.9295C38.5474 30.7127 37.9962 30.4286 37.323 30.1453C35.9958 29.5866 34.0958 28.989 31.9844 28.989H30.4844V25.9901H52.4844V51.9803H37.4844C37.4844 50.8565 36.9492 49.8715 36.4126 49.1564C35.845 48.4 35.0952 47.7031 34.2858 47.1147C33.2194 46.3394 31.8822 45.6341 30.4844 45.261V40.9844ZM33.4702 51.9803C33.4438 51.9143 33.3758 51.7732 33.2126 51.5554C32.9362 51.1872 32.4986 50.7595 31.933 50.3483C30.78 49.5102 29.4718 49.0048 28.5484 48.9822C27.4598 49.0742 26.0948 49.6316 24.9742 50.4349C24.4158 50.8351 23.9956 51.242 23.7348 51.588C23.5836 51.789 23.5212 51.9191 23.497 51.9803H33.4702Z" fill="#4A4A4A"/>
</g>
</svg>
