<svg width="15" height="18" viewBox="0 0 15 18" fill="none" xmlns="http://www.w3.org/2000/svg">
<g id="Group 2946">
<path id="Vector" d="M13.5938 7.54545C13.5938 12.6364 7.29689 17 7.29689 17C7.29689 17 1 12.6364 1 7.54545C1 5.80949 1.66342 4.14463 2.84432 2.91712C4.02521 1.68961 5.62685 1 7.29689 1C8.96693 1 10.5686 1.68961 11.7495 2.91712C12.9304 4.14463 13.5938 5.80949 13.5938 7.54545Z" stroke="white" stroke-width="2" stroke-linecap="round" stroke-linejoin="round"/>
<path id="Vector_2" d="M7.29428 9.72692C8.4535 9.72692 9.39324 8.75008 9.39324 7.5451C9.39324 6.34011 8.4535 5.36328 7.29428 5.36328C6.13505 5.36328 5.19531 6.34011 5.19531 7.5451C5.19531 8.75008 6.13505 9.72692 7.29428 9.72692Z" stroke="white" stroke-width="2" stroke-linecap="round" stroke-linejoin="round"/>
</g>
</svg>
