<svg width="31" height="32" viewBox="0 0 31 32" fill="none" xmlns="http://www.w3.org/2000/svg">
<g id="Group 4478">
<path id="Vector" d="M23.6155 23.2355V24.9885H21.8624C21.3975 24.9885 20.9516 25.1732 20.6228 25.5019C20.2941 25.8307 20.1094 26.2766 20.1094 26.7415C20.1094 27.2064 20.2941 27.6523 20.6228 27.9811C20.9516 28.3099 21.3975 28.4945 21.8624 28.4945H23.6155V30.2476C23.6155 30.7125 23.8002 31.1584 24.1289 31.4872C24.4577 31.8159 24.9036 32.0006 25.3685 32.0006C25.8335 32.0006 26.2794 31.8159 26.6081 31.4872C26.9369 31.1584 27.1216 30.7125 27.1216 30.2476V28.4945H28.8746C29.3396 28.4945 29.7855 28.3099 30.1142 27.9811C30.443 27.6523 30.6277 27.2064 30.6277 26.7415C30.6277 26.2766 30.443 25.8307 30.1142 25.5019C29.7855 25.1732 29.3396 24.9885 28.8746 24.9885H27.1216V23.2355C27.1216 22.7705 26.9369 22.3246 26.6081 21.9959C26.2794 21.6671 25.8335 21.4824 25.3685 21.4824C24.9036 21.4824 24.4577 21.6671 24.1289 21.9959C23.8002 22.3246 23.6155 22.7705 23.6155 23.2355Z" fill="#B70022"/>
<path id="Union" fill-rule="evenodd" clip-rule="evenodd" d="M20.7266 2C20.7266 1.17157 20.055 0.5 19.2266 0.5C18.3981 0.5 17.7266 1.17157 17.7266 2V2.95493H9.81641V2C9.81641 1.17157 9.14483 0.5 8.31641 0.5C7.48798 0.5 6.81641 1.17157 6.81641 2V2.95493H4.22689C2.04511 2.95493 0 4.58038 0 6.90897V11.8164V24.0872C0 26.4158 2.04511 28.0413 4.22689 28.0413H17.0381C17.8665 28.0413 18.5381 27.3697 18.5381 26.5413C18.5381 25.7128 17.8665 25.0413 17.0381 25.0413H4.22689C3.39663 25.0413 3 24.4693 3 24.0872V13.3164H24.542V17.2589C24.542 18.0873 25.2135 18.7589 26.042 18.7589C26.8704 18.7589 27.542 18.0873 27.542 17.2589V11.8164V6.90897C27.542 4.58038 25.4969 2.95493 23.3151 2.95493H20.7266V2ZM24.542 10.3164V6.90897C24.542 6.5269 24.1453 5.95493 23.3151 5.95493H20.7266V6.90918C20.7266 7.73761 20.055 8.40918 19.2266 8.40918C18.3981 8.40918 17.7266 7.73761 17.7266 6.90918V5.95493H9.81641V6.90918C9.81641 7.73761 9.14483 8.40918 8.31641 8.40918C7.48798 8.40918 6.81641 7.73761 6.81641 6.90918V5.95493H4.22689C3.39663 5.95493 3 6.5269 3 6.90897V10.3164H24.542Z" fill="#B70022"/>
<g id="Vector_2">
<path d="M12.7625 17.7477C13.0616 18.017 13.432 18.1516 13.8735 18.1516C14.314 18.1526 14.6838 18.0184 14.983 17.7491C15.2822 17.4798 15.4318 17.1465 15.4318 16.7492C15.4329 16.3527 15.2838 16.0199 14.9846 15.7506C14.6854 15.4813 14.315 15.3467 13.8735 15.3467C13.433 15.3457 13.0632 15.4799 12.764 15.7492C12.4648 16.0185 12.3152 16.3518 12.3152 16.7492C12.3142 17.1456 12.4633 17.4784 12.7625 17.7477Z" fill="#B70022"/>
<path d="M6.52927 17.7477C6.82846 18.017 7.19882 18.1516 7.64033 18.1516C8.08081 18.1526 8.45065 18.0184 8.74984 17.7491C9.04903 17.4798 9.19863 17.1465 9.19863 16.7492C9.19967 16.3527 9.05059 16.0199 8.7514 15.7506C8.45221 15.4813 8.08185 15.3467 7.64033 15.3467C7.19985 15.3457 6.83002 15.4799 6.53083 15.7492C6.23163 16.0185 6.08204 16.3518 6.08204 16.7492C6.081 17.1456 6.23008 17.4784 6.52927 17.7477Z" fill="#B70022"/>
<path d="M18.9956 17.7477C19.2948 18.017 19.6652 18.1516 20.1067 18.1516C20.5472 18.1526 20.917 18.0184 21.2162 17.7491C21.5154 17.4798 21.665 17.1465 21.665 16.7492C21.666 16.3527 21.517 16.0199 21.2178 15.7506C20.9186 15.4813 20.5482 15.3467 20.1067 15.3467C19.6662 15.3457 19.2964 15.4799 18.9972 15.7492C18.698 16.0185 18.5484 16.3518 18.5484 16.7492C18.5474 17.1456 18.6965 17.4784 18.9956 17.7477Z" fill="#B70022"/>
<path d="M12.7625 23.3576C13.0616 23.6269 13.432 23.7615 13.8735 23.7615C14.314 23.7624 14.6838 23.6283 14.983 23.359C15.2822 23.0897 15.4318 22.7564 15.4318 22.359C15.4329 21.9626 15.2838 21.6297 14.9846 21.3605C14.6854 21.0912 14.315 20.9566 13.8735 20.9566C13.433 20.9556 13.0632 21.0898 12.764 21.3591C12.4648 21.6283 12.3152 21.9617 12.3152 22.359C12.3142 22.7555 12.4633 23.0883 12.7625 23.3576Z" fill="#B70022"/>
<path d="M6.52927 23.3576C6.82846 23.6269 7.19882 23.7615 7.64033 23.7615C8.08081 23.7624 8.45065 23.6283 8.74984 23.359C9.04903 23.0897 9.19863 22.7564 9.19863 22.359C9.19967 21.9626 9.05059 21.6297 8.7514 21.3605C8.45221 21.0912 8.08185 20.9566 7.64033 20.9566C7.19985 20.9556 6.83002 21.0898 6.53083 21.3591C6.23163 21.6283 6.08204 21.9617 6.08204 22.359C6.081 22.7555 6.23008 23.0883 6.52927 23.3576Z" fill="#B70022"/>
<path d="M18.9956 23.3576C19.2948 23.6269 19.6652 23.7615 20.1067 23.7615C20.5472 23.7624 20.917 23.6283 21.2162 23.359C21.5154 23.0897 21.665 22.7564 21.665 22.359C21.666 21.9626 21.517 21.6297 21.2178 21.3605C20.9186 21.0912 20.5482 20.9566 20.1067 20.9566C19.6662 20.9556 19.2964 21.0898 18.9972 21.3591C18.698 21.6283 18.5484 21.9617 18.5484 22.359C18.5474 22.7555 18.6965 23.0883 18.9956 23.3576Z" fill="#B70022"/>
</g>
</g>
</svg>
