<svg width="82" height="82" viewBox="0 0 82 82" fill="none" xmlns="http://www.w3.org/2000/svg">
<g id="Group 3034">
<path id="Vector" d="M41 1C18.9429 1 1 18.9429 1 41C1 63.0571 18.9429 81 41 81C63.0571 81 81 63.0571 81 41C81 18.9429 63.0571 1 41 1ZM41 75.2857C22.0914 75.2857 6.71429 59.9086 6.71429 41C6.71429 22.0914 22.0914 6.71429 41 6.71429C59.9086 6.71429 75.2857 22.0914 75.2857 41C75.2857 59.9086 59.9086 75.2857 41 75.2857Z" fill="#4A4A4A" stroke="#4A4A4A" stroke-width="2"/>
<path id="Vector_2" d="M43.8569 12.4286H38.1426V43.8572H63.8569V38.1429H43.8569V12.4286Z" fill="#4A4A4A" stroke="#4A4A4A"/>
</g>
</svg>
