<svg width="80" height="80" viewBox="0 0 80 80" fill="none" xmlns="http://www.w3.org/2000/svg">
<g id="Vector">
<mask id="path-1-inside-1_88_9044" fill="white">
<path d="M41.9048 57.1429H38.0952C37.0849 57.1429 36.1159 57.5442 35.4015 58.2586C34.6871 58.9731 34.2857 59.942 34.2857 60.9524C34.2857 61.9627 34.6871 62.9317 35.4015 63.6461C36.1159 64.3605 37.0849 64.7619 38.0952 64.7619H41.9048C42.9151 64.7619 43.8841 64.3605 44.5985 63.6461C45.3129 62.9317 45.7143 61.9627 45.7143 60.9524C45.7143 59.942 45.3129 58.9731 44.5985 58.2586C43.8841 57.5442 42.9151 57.1429 41.9048 57.1429ZM41.9048 41.9048H38.0952C37.0849 41.9048 36.1159 42.3061 35.4015 43.0205C34.6871 43.735 34.2857 44.7039 34.2857 45.7143C34.2857 46.7246 34.6871 47.6936 35.4015 48.408C36.1159 49.1224 37.0849 49.5238 38.0952 49.5238H41.9048C42.9151 49.5238 43.8841 49.1224 44.5985 48.408C45.3129 47.6936 45.7143 46.7246 45.7143 45.7143C45.7143 44.7039 45.3129 43.735 44.5985 43.0205C43.8841 42.3061 42.9151 41.9048 41.9048 41.9048ZM22.8571 57.1429H19.0476C18.0373 57.1429 17.0683 57.5442 16.3539 58.2586C15.6395 58.9731 15.2381 59.942 15.2381 60.9524C15.2381 61.9627 15.6395 62.9317 16.3539 63.6461C17.0683 64.3605 18.0373 64.7619 19.0476 64.7619H22.8571C23.8675 64.7619 24.8365 64.3605 25.5509 63.6461C26.2653 62.9317 26.6667 61.9627 26.6667 60.9524C26.6667 59.942 26.2653 58.9731 25.5509 58.2586C24.8365 57.5442 23.8675 57.1429 22.8571 57.1429ZM22.8571 41.9048H19.0476C18.0373 41.9048 17.0683 42.3061 16.3539 43.0205C15.6395 43.735 15.2381 44.7039 15.2381 45.7143C15.2381 46.7246 15.6395 47.6936 16.3539 48.408C17.0683 49.1224 18.0373 49.5238 19.0476 49.5238H22.8571C23.8675 49.5238 24.8365 49.1224 25.5509 48.408C26.2653 47.6936 26.6667 46.7246 26.6667 45.7143C26.6667 44.7039 26.2653 43.735 25.5509 43.0205C24.8365 42.3061 23.8675 41.9048 22.8571 41.9048ZM76.1905 19.0476H64.7619V3.80952C64.7619 2.79918 64.3605 1.83021 63.6461 1.11578C62.9317 0.401359 61.9627 0 60.9524 0H19.0476C18.0373 0 17.0683 0.401359 16.3539 1.11578C15.6395 1.83021 15.2381 2.79918 15.2381 3.80952V19.0476H3.80952C2.79918 19.0476 1.83021 19.449 1.11578 20.1634C0.401359 20.8778 0 21.8468 0 22.8571V76.1905C0 77.2008 0.401359 78.1698 1.11578 78.8842C1.83021 79.5986 2.79918 80 3.80952 80H76.1905C77.2008 80 78.1698 79.5986 78.8842 78.8842C79.5986 78.1698 80 77.2008 80 76.1905V22.8571C80 21.8468 79.5986 20.8778 78.8842 20.1634C78.1698 19.449 77.2008 19.0476 76.1905 19.0476ZM72.381 72.381H7.61905V26.6667H19.0476C20.058 26.6667 21.0269 26.2653 21.7414 25.5509C22.4558 24.8365 22.8571 23.8675 22.8571 22.8571V7.61905H57.1429V22.8571C57.1429 23.8675 57.5442 24.8365 58.2586 25.5509C58.9731 26.2653 59.942 26.6667 60.9524 26.6667H72.381V72.381ZM57.1429 41.9048C56.1325 41.9048 55.1635 42.3061 54.4491 43.0205C53.7347 43.735 53.3333 44.7039 53.3333 45.7143C53.3333 46.7246 53.7347 47.6936 54.4491 48.408C55.1635 49.1224 56.1325 49.5238 57.1429 49.5238H60.9524C61.9627 49.5238 62.9317 49.1224 63.6461 48.408C64.3605 47.6936 64.7619 46.7246 64.7619 45.7143C64.7619 44.7039 64.3605 43.735 63.6461 43.0205C62.9317 42.3061 61.9627 41.9048 60.9524 41.9048H57.1429ZM45.7143 20.9524H43.8095V19.0476C43.8095 18.0373 43.4082 17.0683 42.6937 16.3539C41.9793 15.6395 41.0103 15.2381 40 15.2381C38.9897 15.2381 38.0207 15.6395 37.3063 16.3539C36.5918 17.0683 36.1905 18.0373 36.1905 19.0476V20.9524H34.2857C33.2754 20.9524 32.3064 21.3537 31.592 22.0682C30.8776 22.7826 30.4762 23.7516 30.4762 24.7619C30.4762 25.7723 30.8776 26.7412 31.592 27.4556C32.3064 28.1701 33.2754 28.5714 34.2857 28.5714H36.1905V30.4762C36.1905 31.4865 36.5918 32.4555 37.3063 33.1699C38.0207 33.8844 38.9897 34.2857 40 34.2857C41.0103 34.2857 41.9793 33.8844 42.6937 33.1699C43.4082 32.4555 43.8095 31.4865 43.8095 30.4762V28.5714H45.7143C46.7246 28.5714 47.6936 28.1701 48.408 27.4556C49.1224 26.7412 49.5238 25.7723 49.5238 24.7619C49.5238 23.7516 49.1224 22.7826 48.408 22.0682C47.6936 21.3537 46.7246 20.9524 45.7143 20.9524ZM60.9524 57.1429H57.1429C56.1325 57.1429 55.1635 57.5442 54.4491 58.2586C53.7347 58.9731 53.3333 59.942 53.3333 60.9524C53.3333 61.9627 53.7347 62.9317 54.4491 63.6461C55.1635 64.3605 56.1325 64.7619 57.1429 64.7619H60.9524C61.9627 64.7619 62.9317 64.3605 63.6461 63.6461C64.3605 62.9317 64.7619 61.9627 64.7619 60.9524C64.7619 59.942 64.3605 58.9731 63.6461 58.2586C62.9317 57.5442 61.9627 57.1429 60.9524 57.1429Z"/>
</mask>
<path d="M41.9048 57.1429H38.0952C37.0849 57.1429 36.1159 57.5442 35.4015 58.2586C34.6871 58.9731 34.2857 59.942 34.2857 60.9524C34.2857 61.9627 34.6871 62.9317 35.4015 63.6461C36.1159 64.3605 37.0849 64.7619 38.0952 64.7619H41.9048C42.9151 64.7619 43.8841 64.3605 44.5985 63.6461C45.3129 62.9317 45.7143 61.9627 45.7143 60.9524C45.7143 59.942 45.3129 58.9731 44.5985 58.2586C43.8841 57.5442 42.9151 57.1429 41.9048 57.1429ZM41.9048 41.9048H38.0952C37.0849 41.9048 36.1159 42.3061 35.4015 43.0205C34.6871 43.735 34.2857 44.7039 34.2857 45.7143C34.2857 46.7246 34.6871 47.6936 35.4015 48.408C36.1159 49.1224 37.0849 49.5238 38.0952 49.5238H41.9048C42.9151 49.5238 43.8841 49.1224 44.5985 48.408C45.3129 47.6936 45.7143 46.7246 45.7143 45.7143C45.7143 44.7039 45.3129 43.735 44.5985 43.0205C43.8841 42.3061 42.9151 41.9048 41.9048 41.9048ZM22.8571 57.1429H19.0476C18.0373 57.1429 17.0683 57.5442 16.3539 58.2586C15.6395 58.9731 15.2381 59.942 15.2381 60.9524C15.2381 61.9627 15.6395 62.9317 16.3539 63.6461C17.0683 64.3605 18.0373 64.7619 19.0476 64.7619H22.8571C23.8675 64.7619 24.8365 64.3605 25.5509 63.6461C26.2653 62.9317 26.6667 61.9627 26.6667 60.9524C26.6667 59.942 26.2653 58.9731 25.5509 58.2586C24.8365 57.5442 23.8675 57.1429 22.8571 57.1429ZM22.8571 41.9048H19.0476C18.0373 41.9048 17.0683 42.3061 16.3539 43.0205C15.6395 43.735 15.2381 44.7039 15.2381 45.7143C15.2381 46.7246 15.6395 47.6936 16.3539 48.408C17.0683 49.1224 18.0373 49.5238 19.0476 49.5238H22.8571C23.8675 49.5238 24.8365 49.1224 25.5509 48.408C26.2653 47.6936 26.6667 46.7246 26.6667 45.7143C26.6667 44.7039 26.2653 43.735 25.5509 43.0205C24.8365 42.3061 23.8675 41.9048 22.8571 41.9048ZM76.1905 19.0476H64.7619V3.80952C64.7619 2.79918 64.3605 1.83021 63.6461 1.11578C62.9317 0.401359 61.9627 0 60.9524 0H19.0476C18.0373 0 17.0683 0.401359 16.3539 1.11578C15.6395 1.83021 15.2381 2.79918 15.2381 3.80952V19.0476H3.80952C2.79918 19.0476 1.83021 19.449 1.11578 20.1634C0.401359 20.8778 0 21.8468 0 22.8571V76.1905C0 77.2008 0.401359 78.1698 1.11578 78.8842C1.83021 79.5986 2.79918 80 3.80952 80H76.1905C77.2008 80 78.1698 79.5986 78.8842 78.8842C79.5986 78.1698 80 77.2008 80 76.1905V22.8571C80 21.8468 79.5986 20.8778 78.8842 20.1634C78.1698 19.449 77.2008 19.0476 76.1905 19.0476ZM72.381 72.381H7.61905V26.6667H19.0476C20.058 26.6667 21.0269 26.2653 21.7414 25.5509C22.4558 24.8365 22.8571 23.8675 22.8571 22.8571V7.61905H57.1429V22.8571C57.1429 23.8675 57.5442 24.8365 58.2586 25.5509C58.9731 26.2653 59.942 26.6667 60.9524 26.6667H72.381V72.381ZM57.1429 41.9048C56.1325 41.9048 55.1635 42.3061 54.4491 43.0205C53.7347 43.735 53.3333 44.7039 53.3333 45.7143C53.3333 46.7246 53.7347 47.6936 54.4491 48.408C55.1635 49.1224 56.1325 49.5238 57.1429 49.5238H60.9524C61.9627 49.5238 62.9317 49.1224 63.6461 48.408C64.3605 47.6936 64.7619 46.7246 64.7619 45.7143C64.7619 44.7039 64.3605 43.735 63.6461 43.0205C62.9317 42.3061 61.9627 41.9048 60.9524 41.9048H57.1429ZM45.7143 20.9524H43.8095V19.0476C43.8095 18.0373 43.4082 17.0683 42.6937 16.3539C41.9793 15.6395 41.0103 15.2381 40 15.2381C38.9897 15.2381 38.0207 15.6395 37.3063 16.3539C36.5918 17.0683 36.1905 18.0373 36.1905 19.0476V20.9524H34.2857C33.2754 20.9524 32.3064 21.3537 31.592 22.0682C30.8776 22.7826 30.4762 23.7516 30.4762 24.7619C30.4762 25.7723 30.8776 26.7412 31.592 27.4556C32.3064 28.1701 33.2754 28.5714 34.2857 28.5714H36.1905V30.4762C36.1905 31.4865 36.5918 32.4555 37.3063 33.1699C38.0207 33.8844 38.9897 34.2857 40 34.2857C41.0103 34.2857 41.9793 33.8844 42.6937 33.1699C43.4082 32.4555 43.8095 31.4865 43.8095 30.4762V28.5714H45.7143C46.7246 28.5714 47.6936 28.1701 48.408 27.4556C49.1224 26.7412 49.5238 25.7723 49.5238 24.7619C49.5238 23.7516 49.1224 22.7826 48.408 22.0682C47.6936 21.3537 46.7246 20.9524 45.7143 20.9524ZM60.9524 57.1429H57.1429C56.1325 57.1429 55.1635 57.5442 54.4491 58.2586C53.7347 58.9731 53.3333 59.942 53.3333 60.9524C53.3333 61.9627 53.7347 62.9317 54.4491 63.6461C55.1635 64.3605 56.1325 64.7619 57.1429 64.7619H60.9524C61.9627 64.7619 62.9317 64.3605 63.6461 63.6461C64.3605 62.9317 64.7619 61.9627 64.7619 60.9524C64.7619 59.942 64.3605 58.9731 63.6461 58.2586C62.9317 57.5442 61.9627 57.1429 60.9524 57.1429Z" fill="#4A4A4A" stroke="#4A4A4A" stroke-width="2" mask="url(#path-1-inside-1_88_9044)"/>
</g>
</svg>
