<svg width="23" height="4" viewBox="0 0 23 4" fill="none" xmlns="http://www.w3.org/2000/svg">
<g id="Union">
<path fill-rule="evenodd" clip-rule="evenodd" d="M1 2.32959C1 1.77731 1.44772 1.32959 2 1.32959H20.6667C21.219 1.32959 21.6667 1.77731 21.6667 2.32959C21.6667 2.88187 21.219 3.32959 20.6667 3.32959H2C1.44772 3.32959 1 2.88187 1 2.32959Z" fill="#B70022"/>
<path d="M2 0.82959C1.17157 0.82959 0.5 1.50116 0.5 2.32959H1.5C1.5 2.05345 1.72386 1.82959 2 1.82959V0.82959ZM20.6667 0.82959H2V1.82959H20.6667V0.82959ZM22.1667 2.32959C22.1667 1.50116 21.4951 0.82959 20.6667 0.82959V1.82959C20.9428 1.82959 21.1667 2.05345 21.1667 2.32959H22.1667ZM20.6667 3.82959C21.4951 3.82959 22.1667 3.15802 22.1667 2.32959H21.1667C21.1667 2.60573 20.9428 2.82959 20.6667 2.82959V3.82959ZM2 3.82959H20.6667V2.82959H2V3.82959ZM0.5 2.32959C0.5 3.15802 1.17157 3.82959 2 3.82959V2.82959C1.72386 2.82959 1.5 2.60573 1.5 2.32959H0.5Z" fill="#B70022"/>
</g>
</svg>
