<svg width="41" height="41" viewBox="0 0 41 41" fill="none" xmlns="http://www.w3.org/2000/svg">
<path id="Vector" d="M18.002 20.0348V22.0347H16.002C15.4716 22.0347 14.9629 22.2454 14.5879 22.6205C14.2128 22.9956 14.0021 23.5042 14.0021 24.0347C14.0021 24.5651 14.2128 25.0738 14.5879 25.4488C14.9629 25.8239 15.4716 26.0346 16.002 26.0346H18.002V28.0345C18.002 28.565 18.2127 29.0737 18.5878 29.4487C18.9628 29.8238 19.4715 30.0345 20.002 30.0345C20.5324 30.0345 21.0411 29.8238 21.4161 29.4487C21.7912 29.0737 22.0019 28.565 22.0019 28.0345V26.0346H24.0019C24.5323 26.0346 25.041 25.8239 25.4161 25.4488C25.7911 25.0738 26.0018 24.5651 26.0018 24.0347C26.0018 23.5042 25.7911 22.9956 25.4161 22.6205C25.041 22.2454 24.5323 22.0347 24.0019 22.0347H22.0019V20.0348C22.0019 19.5044 21.7912 18.9957 21.4161 18.6206C21.0411 18.2456 20.5324 18.0348 20.002 18.0348C19.4715 18.0348 18.9628 18.2456 18.5878 18.6206C18.2127 18.9957 18.002 19.5044 18.002 20.0348ZM39.3296 16.5389L21.3299 0.539375C20.9641 0.213955 20.4916 0.0341797 20.002 0.0341797C19.5123 0.0341797 19.0398 0.213955 18.674 0.539375L0.674343 16.5389C0.277587 16.8911 0.0369921 17.3865 0.00548664 17.9161C-0.0260188 18.4456 0.154146 18.9661 0.506346 19.3628C0.858547 19.7596 1.35393 20.0001 1.88352 20.0317C2.41312 20.0632 2.93353 19.883 3.33029 19.5308L4.00228 18.9328V38.0342C4.00228 38.5647 4.21299 39.0733 4.58805 39.4484C4.96312 39.8235 5.47181 40.0342 6.00224 40.0342H34.0017C34.5321 40.0342 35.0408 39.8235 35.4159 39.4484C35.7909 39.0733 36.0016 38.5647 36.0016 38.0342V18.9328L36.6736 19.5308C37.0704 19.883 37.5908 20.0632 38.1204 20.0317C38.3826 20.0161 38.6392 19.949 38.8755 19.8342C39.1118 19.7194 39.3232 19.5593 39.4976 19.3628C39.672 19.1664 39.8059 18.9375 39.8919 18.6892C39.9778 18.441 40.014 18.1783 39.9984 17.9161C39.9828 17.6538 39.9157 17.3972 39.801 17.161C39.6862 16.9247 39.526 16.7133 39.3296 16.5389ZM32.0017 36.0343H8.0022V15.3769L20.002 4.71125L32.0017 15.3769V36.0343Z" fill="black"/>
</svg>
