<svg width="23" height="23" viewBox="0 0 23 23" fill="none" xmlns="http://www.w3.org/2000/svg">
<g id="Union">
<path fill-rule="evenodd" clip-rule="evenodd" d="M12.334 2C12.334 1.44772 11.8863 1 11.334 1C10.7817 1 10.334 1.44772 10.334 2V10.3297H2C1.44772 10.3297 1 10.7774 1 11.3297C1 11.882 1.44772 12.3297 2 12.3297H10.334V20.6596C10.334 21.2119 10.7817 21.6596 11.334 21.6596C11.8863 21.6596 12.334 21.2119 12.334 20.6596V12.3297H20.6667C21.219 12.3297 21.6667 11.882 21.6667 11.3297C21.6667 10.7774 21.219 10.3297 20.6667 10.3297H12.334V2Z" fill="#B70022"/>
<path d="M10.334 10.3297V10.8297C10.6101 10.8297 10.834 10.6059 10.834 10.3297H10.334ZM10.334 12.3297H10.834C10.834 12.0536 10.6101 11.8297 10.334 11.8297V12.3297ZM12.334 12.3297V11.8297C12.0578 11.8297 11.834 12.0536 11.834 12.3297H12.334ZM12.334 10.3297H11.834C11.834 10.6059 12.0578 10.8297 12.334 10.8297V10.3297ZM11.334 1.5C11.6101 1.5 11.834 1.72386 11.834 2H12.834C12.834 1.17157 12.1624 0.5 11.334 0.5V1.5ZM10.834 2C10.834 1.72386 11.0578 1.5 11.334 1.5V0.5C10.5056 0.5 9.83398 1.17157 9.83398 2H10.834ZM10.834 10.3297V2H9.83398V10.3297H10.834ZM2 10.8297H10.334V9.82972H2V10.8297ZM1.5 11.3297C1.5 11.0536 1.72386 10.8297 2 10.8297V9.82972C1.17157 9.82972 0.5 10.5013 0.5 11.3297H1.5ZM2 11.8297C1.72386 11.8297 1.5 11.6059 1.5 11.3297H0.5C0.5 12.1581 1.17157 12.8297 2 12.8297V11.8297ZM10.334 11.8297H2V12.8297H10.334V11.8297ZM10.834 20.6596V12.3297H9.83398V20.6596H10.834ZM11.334 21.1596C11.0578 21.1596 10.834 20.9357 10.834 20.6596H9.83398C9.83398 21.488 10.5056 22.1596 11.334 22.1596V21.1596ZM11.834 20.6596C11.834 20.9357 11.6101 21.1596 11.334 21.1596V22.1596C12.1624 22.1596 12.834 21.488 12.834 20.6596H11.834ZM11.834 12.3297V20.6596H12.834V12.3297H11.834ZM20.6667 11.8297H12.334V12.8297H20.6667V11.8297ZM21.1667 11.3297C21.1667 11.6059 20.9428 11.8297 20.6667 11.8297V12.8297C21.4951 12.8297 22.1667 12.1581 22.1667 11.3297H21.1667ZM20.6667 10.8297C20.9428 10.8297 21.1667 11.0536 21.1667 11.3297H22.1667C22.1667 10.5013 21.4951 9.82972 20.6667 9.82972V10.8297ZM12.334 10.8297H20.6667V9.82972H12.334V10.8297ZM11.834 2V10.3297H12.834V2H11.834Z" fill="#B70022"/>
</g>
</svg>
