<svg width="22" height="24" viewBox="0 0 22 24" fill="none" xmlns="http://www.w3.org/2000/svg">
<path id="Vector" d="M10.7965 23.9909C4.83358 23.9909 0 18.6205 0 11.9955C0 5.37037 4.83358 0 10.7965 0C16.7593 0 21.5929 5.37037 21.5929 11.9955C21.5929 18.6205 16.7593 23.9909 10.7965 23.9909ZM10.7965 21.5918C13.0872 21.5918 15.2841 20.5808 16.9039 18.7811C18.5236 16.9814 19.4336 14.5406 19.4336 11.9955C19.4336 9.45034 18.5236 7.00947 16.9039 5.2098C15.2841 3.41013 13.0872 2.39909 10.7965 2.39909C8.50574 2.39909 6.30884 3.41013 4.68906 5.2098C3.06928 7.00947 2.15929 9.45034 2.15929 11.9955C2.15929 14.5406 3.06928 16.9814 4.68906 18.7811C6.30884 20.5808 8.50574 21.5918 10.7965 21.5918ZM7.0177 14.3945H12.9558C13.0989 14.3945 13.2362 14.3314 13.3375 14.2189C13.4387 14.1064 13.4956 13.9538 13.4956 13.7948C13.4956 13.6357 13.4387 13.4831 13.3375 13.3707C13.2362 13.2582 13.0989 13.195 12.9558 13.195H8.63717C7.92132 13.195 7.23479 12.8791 6.72861 12.3167C6.22242 11.7543 5.93805 10.9915 5.93805 10.1961C5.93805 9.40079 6.22242 8.63802 6.72861 8.07562C7.23479 7.51322 7.92132 7.19727 8.63717 7.19727H9.71681V4.79818H11.8761V7.19727H14.5752V9.59636H8.63717C8.494 9.59636 8.35669 9.65955 8.25546 9.77203C8.15422 9.88451 8.09735 10.0371 8.09735 10.1961C8.09735 10.3552 8.15422 10.5078 8.25546 10.6202C8.35669 10.7327 8.494 10.7959 8.63717 10.7959H12.9558C13.6716 10.7959 14.3581 11.1119 14.8643 11.6743C15.3705 12.2367 15.6549 12.9994 15.6549 13.7948C15.6549 14.5901 15.3705 15.3529 14.8643 15.9153C14.3581 16.4777 13.6716 16.7936 12.9558 16.7936H11.8761V19.1927H9.71681V16.7936H7.0177V14.3945Z" fill="black"/>
</svg>
