<svg width="136" height="104" viewBox="0 0 136 104" fill="none" xmlns="http://www.w3.org/2000/svg">
<path id="Vector" d="M113.104 0C116.092 0 118.958 1.36964 121.071 3.80761C123.184 6.24558 124.371 9.55219 124.371 13V78C124.371 85.215 119.357 91 113.104 91H135.638V104H0.4375V91H22.9708C19.9827 91 17.117 89.6304 15.0041 87.1924C12.8912 84.7544 11.7042 81.4478 11.7042 78V13C11.7042 5.785 16.7178 0 22.9708 0H113.104ZM113.104 13H22.9708V78H113.104V13ZM68.0375 52C80.4872 52 90.5708 57.85 90.5708 65V71.5H45.5042V65C45.5042 57.85 55.5878 52 68.0375 52ZM68.0375 19.5C71.0256 19.5 73.8913 20.8696 76.0042 23.3076C78.1171 25.7456 79.3042 29.0522 79.3042 32.5C79.3042 35.9478 78.1171 39.2544 76.0042 41.6924C73.8913 44.1304 71.0256 45.5 68.0375 45.5C61.7845 45.5 56.7708 39.715 56.7708 32.5C56.7708 25.285 61.8408 19.5 68.0375 19.5Z" fill="#4A4A4A"/>
</svg>
