<svg width="40" height="40" viewBox="0 0 40 40" fill="none" xmlns="http://www.w3.org/2000/svg">
<path id="Vector" d="M18 20.0006V22.0005H16.0001C15.4697 22.0005 14.961 22.2113 14.5859 22.5863C14.2108 22.9614 14.0001 23.4701 14.0001 24.0005C14.0001 24.5309 14.2108 25.0396 14.5859 25.4147C14.961 25.7897 15.4697 26.0004 16.0001 26.0004H18V28.0004C18 28.5308 18.2108 29.0395 18.5858 29.4145C18.9609 29.7896 19.4696 30.0003 20 30.0003C20.5304 30.0003 21.0391 29.7896 21.4142 29.4145C21.7892 29.0395 22 28.5308 22 28.0004V26.0004H23.9999C24.5303 26.0004 25.039 25.7897 25.4141 25.4147C25.7892 25.0396 25.9999 24.5309 25.9999 24.0005C25.9999 23.4701 25.7892 22.9614 25.4141 22.5863C25.039 22.2113 24.5303 22.0005 23.9999 22.0005H22V20.0006C22 19.4702 21.7892 18.9615 21.4142 18.5864C21.0391 18.2114 20.5304 18.0007 20 18.0007C19.4696 18.0007 18.9609 18.2114 18.5858 18.5864C18.2108 18.9615 18 19.4702 18 20.0006ZM39.3276 16.5047L21.328 0.505196C20.9622 0.179775 20.4896 0 20 0C19.5104 0 19.0378 0.179775 18.672 0.505196L0.67239 16.5047C0.275634 16.8569 0.035039 17.3523 0.00353352 17.8819C-0.027972 18.4115 0.152193 18.9319 0.504393 19.3286C0.856594 19.7254 1.35198 19.966 1.88157 19.9975C2.41116 20.029 2.93158 19.8488 3.32834 19.4966L4.00032 18.8986V38.0001C4.00032 38.5305 4.21103 39.0392 4.5861 39.4142C4.96116 39.7893 5.46986 40 6.00028 40H33.9997C34.5301 40 35.0388 39.7893 35.4139 39.4142C35.789 39.0392 35.9997 38.5305 35.9997 38.0001V18.8986L36.6717 19.4966C37.0684 19.8488 37.5888 20.029 38.1184 19.9975C38.3807 19.9819 38.6372 19.9148 38.8735 19.8C39.1098 19.6853 39.3212 19.5251 39.4956 19.3286C39.67 19.1322 39.804 18.9033 39.8899 18.6551C39.9759 18.4068 40.0121 18.1441 39.9965 17.8819C39.9809 17.6197 39.9138 17.3631 39.799 17.1268C39.6842 16.8905 39.5241 16.6791 39.3276 16.5047ZM31.9998 36.0001H8.00024V15.3427L20 4.67707L31.9998 15.3427V36.0001Z" fill="#B70022"/>
</svg>
