<svg width="69" height="80" viewBox="0 0 69 80" fill="none" xmlns="http://www.w3.org/2000/svg">
<path id="Vector" d="M3.24113 59.5123C1.71863 59.5123 0.484375 60.7614 0.484375 62.302C0.484375 63.8426 1.71863 65.0916 3.24113 65.0916V59.5123ZM30.8087 65.0916C32.3312 65.0916 33.5655 63.8426 33.5655 62.302C33.5655 60.7614 32.3312 59.5123 30.8087 59.5123V65.0916ZM6.91681 74.3904C5.39431 74.3904 4.16005 75.6394 4.16005 77.1801C4.16005 78.7207 5.39431 79.9697 6.91681 79.9697V74.3904ZM65.7276 79.9697C67.2501 79.9697 68.4844 78.7207 68.4844 77.1801C68.4844 75.6394 67.2501 74.3904 65.7276 74.3904V79.9697ZM38.7368 10.2287L40.686 8.25611C40.1688 7.73296 39.4679 7.43905 38.7368 7.43905C38.0053 7.43905 37.3044 7.73296 36.7872 8.25611L38.7368 10.2287ZM49.133 20.7491L51.0823 22.7217C51.5994 22.1985 51.8898 21.4889 51.8898 20.7491C51.8898 20.0092 51.5994 19.2997 51.0823 18.7765L49.133 20.7491ZM26.3053 43.8491L24.356 45.8215C24.873 46.3449 25.5742 46.6387 26.3053 46.6387C27.0365 46.6387 27.7376 46.3449 28.2547 45.8215L26.3053 43.8491ZM15.9089 33.3288L13.9596 31.3561C12.883 32.4455 12.883 34.2118 13.9596 35.3012L15.9089 33.3288ZM49.44 0.824213C48.367 -0.26914 46.6218 -0.275538 45.5412 0.809967C44.4609 1.89543 44.4543 3.66172 45.5272 4.75508L49.44 0.824213ZM54.5495 13.9512C55.6221 15.0445 57.3677 15.0509 58.4479 13.9654C59.5286 12.8799 59.5348 11.1136 58.4623 10.0203L54.5495 13.9512ZM28.2547 41.8766L17.8583 31.3561L13.9596 35.3012L24.356 45.8215L28.2547 41.8766ZM17.8583 35.3012L40.686 12.2013L36.7872 8.25611L13.9596 31.3561L17.8583 35.3012ZM62.9709 50.7904C62.9709 63.7574 52.2934 74.3904 38.9727 74.3904V79.9697C55.2045 79.9697 68.4844 66.9726 68.4844 50.7904H62.9709ZM44.208 27.8253C54.8796 30.3116 62.9709 39.7349 62.9709 50.7904H68.4844C68.4844 36.8884 58.3733 25.4004 45.4452 22.3882L44.208 27.8253ZM50.052 5.40849L41.9919 13.5097L45.8775 17.4681L53.9375 9.36691L50.052 5.40849ZM45.5272 4.75508L50.0384 9.35311L53.9511 5.42225L49.44 0.824213L45.5272 4.75508ZM50.0384 9.35311L54.5495 13.9512L58.4623 10.0203L53.9511 5.42225L50.0384 9.35311ZM38.9727 74.3904C29.438 74.3904 21.2324 68.9287 17.3582 61.0582L12.423 63.5458C17.2192 73.2891 27.3229 79.9697 38.9727 79.9697V74.3904ZM3.24113 65.0916H14.8906V59.5123H3.24113V65.0916ZM14.8906 65.0916H30.8087V59.5123H14.8906V65.0916ZM6.91681 79.9697H38.9727V74.3904H6.91681V79.9697ZM38.9727 79.9697H65.7276V74.3904H38.9727V79.9697ZM47.1838 18.7765L42.8774 23.1342L46.7758 27.0793L51.0823 22.7217L47.1838 18.7765ZM42.8774 23.1342L24.356 41.8766L28.2547 45.8215L46.7758 27.0793L42.8774 23.1342ZM36.7872 12.2013L41.9853 17.4614L45.8841 13.5163L40.686 8.25611L36.7872 12.2013ZM41.9853 17.4614L47.1838 22.7217L51.0823 18.7765L45.8841 13.5163L41.9853 17.4614Z" fill="#4A4A4A"/>
</svg>
