<svg width="17" height="17" viewBox="0 0 17 17" fill="none" xmlns="http://www.w3.org/2000/svg">
<path id="Union" fill-rule="evenodd" clip-rule="evenodd" d="M12.4004 1C12.4004 0.447715 11.9527 0 11.4004 0C10.8481 0 10.4004 0.447715 10.4004 1V1.44063H5.99923V1C5.99923 0.447715 5.55151 0 4.99923 0C4.44694 0 3.99923 0.447715 3.99923 1V1.44063H2.60003C1.26585 1.44063 0 2.43646 0 3.88056V6.75978V13.9601C0 15.4042 1.26585 16.4 2.60003 16.4H13.8002C15.1344 16.4 16.4002 15.4042 16.4002 13.9601V6.75978V3.88056C16.4002 2.43646 15.1344 1.44063 13.8002 1.44063H12.4004V1ZM14.4002 5.75978V3.88056C14.4002 3.73415 14.2334 3.44063 13.8002 3.44063H12.4004V3.88051C12.4004 4.43279 11.9527 4.88051 11.4004 4.88051C10.8481 4.88051 10.4004 4.43279 10.4004 3.88051V3.44063H5.99923V3.88051C5.99923 4.43279 5.55151 4.88051 4.99923 4.88051C4.44694 4.88051 3.99923 4.43279 3.99923 3.88051V3.44063H2.60003C2.16686 3.44063 2 3.73415 2 3.88056V5.75978H14.4002ZM2 7.75978H14.4002V13.9601C14.4002 14.1065 14.2334 14.4 13.8002 14.4H2.60003C2.16686 14.4 2 14.1065 2 13.9601V7.75978Z" fill="#B70022"/>
</svg>
