<svg width="97" height="80" viewBox="0 0 97 80" fill="none" xmlns="http://www.w3.org/2000/svg">
<path id="Union" fill-rule="evenodd" clip-rule="evenodd" d="M60.6755 16.0148L60.4752 15.8597C60.0912 12.9413 58.6921 9.90155 56.5101 7.33695C52.9655 3.17125 47.1902 0 39.4549 0C31.8353 0 26.4614 3.47474 23.2927 7.78038C21.7247 9.91088 20.6954 12.2447 20.19 14.4605C20.086 14.9161 20.0029 15.3737 19.942 15.8291L19.7023 16.0148C17.2043 17.9489 15.3718 20.2942 15.8061 22.9841C16.2256 25.5829 18.5747 27.165 20.7614 28.1324C21.3187 28.3789 21.9187 28.6093 22.5558 28.8237C22.4603 29.5694 22.4111 30.3291 22.4111 31.0992C22.4111 40.9139 30.3705 48.8702 40.1889 48.8702C50.0073 48.8702 57.9666 40.9139 57.9666 31.0992C57.9666 30.3291 57.9175 29.5694 57.8219 28.8237C58.459 28.6093 59.059 28.3789 59.6164 28.1324C61.803 27.165 64.1521 25.5829 64.5717 22.9841C65.0059 20.2942 63.1735 17.9489 60.6755 16.0148ZM24.5105 19.2635C24.2218 18.433 24.1467 17.099 24.5231 15.4479C24.8907 13.8369 25.6569 12.0721 26.8556 10.4365V16.6603C26.8556 17.8872 27.8505 18.8817 29.0778 18.8817C30.3051 18.8817 31.3 17.8872 31.3 16.6603V6.46586C33.1287 5.42353 35.34 4.69827 37.9666 4.49841V12.2176C37.9666 13.4444 38.9615 14.4389 40.1889 14.4389C41.4162 14.4389 42.4111 13.4444 42.4111 12.2176V4.63596C45.0073 4.98525 47.2275 5.78621 49.0777 6.85805V16.6603C49.0777 17.8872 50.0726 18.8817 51.2999 18.8817C52.5273 18.8817 53.5222 17.8872 53.5222 16.6603V10.703C55.9768 13.8489 56.5526 17.2427 55.8619 19.2793C55.4679 20.4411 56.0908 21.7024 57.2533 22.0962C58.201 22.4174 59.2152 22.0625 59.7706 21.2903C60.2088 21.9014 60.1921 22.2257 60.1839 22.2764C60.1552 22.4543 59.8146 23.1863 57.8175 24.0699C56.9504 24.4535 55.9204 24.7981 54.7615 25.1013L54.709 25.1142C53.453 25.4403 52.0555 25.7162 50.5593 25.9405C47.9888 26.3259 45.1271 26.559 42.1895 26.6318C41.5257 26.6483 40.858 26.6565 40.1889 26.6565C38.9184 26.6565 37.6529 26.6267 36.4093 26.5676C34.0924 26.4577 31.852 26.2462 29.7982 25.9374C28.3096 25.7137 26.9191 25.4387 25.6687 25.1142L25.6165 25.1013C24.4574 24.7981 23.4274 24.4535 22.5603 24.0699C20.5632 23.1863 20.2225 22.4543 20.1938 22.2764C20.1856 22.2257 20.1689 21.9014 20.6072 21.2903C21.1663 22.0676 22.1891 22.421 23.1403 22.0909C24.2996 21.6884 24.9129 20.4224 24.5105 19.2635ZM26.9047 29.9461C27.6429 30.0907 28.4062 30.2216 29.1896 30.3386C31.5627 30.6932 34.1189 30.9215 36.7184 31.0284C37.8709 31.0757 39.0318 31.0992 40.1889 31.0992C41.3506 31.0992 42.5162 31.0755 43.6733 31.0279C46.2606 30.9211 48.8051 30.6938 51.1684 30.3415C51.9586 30.2238 52.7286 30.0921 53.473 29.9461C53.5055 30.326 53.5222 30.7105 53.5222 31.0992C53.5222 38.4602 47.5526 44.4275 40.1889 44.4275C32.8251 44.4275 26.8556 38.4602 26.8556 31.0992C26.8556 30.7105 26.8722 30.3257 26.9047 29.9461ZM51.3004 49.9578C52.7622 50.2131 54.2517 50.5116 55.7448 50.8524C58.366 51.4505 60.9989 52.1783 63.5155 53.0278C63.7306 53.0068 63.9486 52.9961 64.1691 52.9961C66.1585 52.9961 67.9442 53.8677 69.1651 55.2497C75.5461 58.1808 80.1892 62.0375 80.1892 66.6415V69.4159C81.8547 68.3508 82.9668 66.4969 82.9981 64.3812C81.6482 63.904 80.6813 62.617 80.6813 61.1043V58.3046C78.6069 57.7168 76.6962 56.6069 75.1445 55.0558C73.0284 52.9405 71.7333 50.1582 71.4639 47.2031C71.4057 46.566 71.9301 46.0463 72.57 46.0463V35.6215C72.57 33.7024 74.1263 32.1466 76.0463 32.1466H76.3564C76.757 31.4542 77.5059 30.9883 78.3638 30.9883C79.6437 30.9883 80.6813 32.0255 80.6813 33.3049C80.6813 34.5843 79.6437 35.6215 78.3638 35.6215C77.5059 35.6215 76.757 35.1556 76.3564 34.4632H76.0463C75.4063 34.4632 74.8875 34.9818 74.8875 35.6215V46.0463H76.2318C76.8718 46.0463 77.3805 46.5686 77.4895 47.199C77.7259 48.5651 78.3786 49.8359 79.3726 50.8294C80.6415 52.098 82.3627 52.8107 84.1575 52.8107C85.9522 52.8107 87.6734 52.098 88.9424 50.8294C89.9363 49.8359 90.5891 48.5651 90.8255 47.199C90.9345 46.5686 91.4432 46.0463 92.0831 46.0463H93.4267V35.6215C93.4267 34.9818 92.9079 34.4632 92.2679 34.4632H91.9578C91.5571 35.1556 90.8082 35.6215 89.9504 35.6215C88.6705 35.6215 87.6329 34.5843 87.6329 33.3049C87.6329 32.0255 88.6705 30.9883 89.9504 30.9883C90.8082 30.9883 91.5571 31.4542 91.9578 32.1466H92.2679C94.1878 32.1466 95.7441 33.7024 95.7441 35.6215V46.0463H95.745C96.3849 46.0463 96.9091 46.566 96.8511 47.2031C96.5817 50.1582 95.2865 52.9405 93.1704 55.0558C91.6187 56.6069 89.7081 57.7168 87.6337 58.3046V61.1043C87.6337 62.6175 86.6662 63.9047 85.3158 64.3816C85.2789 67.8191 83.1757 70.7613 80.1892 72.0258V79.9697H0.189453V66.6415C0.189453 59.1335 12.5376 53.6127 24.6338 50.8524C26.1271 50.5116 27.6165 50.2131 29.0782 49.9578V59.9771H51.3004V49.9578ZM75.7448 70.2583V66.6415C75.7448 66.0028 75.471 65.0847 74.305 63.8425C73.4768 62.9601 72.3153 62.0483 70.8319 61.1419V64.2896C70.8319 67.2479 72.945 69.7128 75.7448 70.2583ZM68.5144 59.8641V64.2896C68.5144 68.5305 71.6591 72.0371 75.7448 72.6065V75.527H4.63388V66.6415C4.63388 66.0028 4.90766 65.0847 6.07359 63.8425C7.2615 62.577 9.13453 61.2511 11.6596 59.9674C12.9241 59.3245 14.2967 58.7198 15.745 58.1569V75.5267H20.1894V56.6255C21.6427 56.1819 23.1332 55.7778 24.6338 55.4158V64.4199H55.4474C55.2808 64.8262 55.1888 65.2711 55.1888 65.7375C55.1888 67.6567 56.7452 69.2124 58.6651 69.2124C60.585 69.2124 62.1413 67.6567 62.1413 65.7375C62.1413 64.2245 61.174 62.9373 59.8238 62.4603V59.6564C59.8238 58.5796 60.2157 57.5944 60.8648 56.8355C61.3861 57.0003 61.9021 57.1703 62.4115 57.3452V75.5267H66.8559V59.0812C67.4258 59.3353 67.9795 59.5963 68.5144 59.8641ZM58.5124 56.1355C57.5981 55.8799 56.6734 55.6397 55.7448 55.4158V63.8516C56.1586 63.2127 56.7765 62.7181 57.5063 62.4603V59.6564C57.5063 58.3637 57.8748 57.157 58.5124 56.1355ZM75.3736 48.3629H73.9895C74.4225 50.2621 75.3834 52.0184 76.7832 53.4177C78.739 55.3727 81.3916 56.471 84.1575 56.471C86.9233 56.471 89.5759 55.3727 91.5316 53.4177C92.9316 52.0184 93.8924 50.2621 94.3255 48.3629H92.9413C92.535 49.9024 91.7269 51.3221 90.5811 52.4675C88.8774 54.1705 86.5668 55.1273 84.1575 55.1273C81.7481 55.1273 79.4375 54.1705 77.7338 52.4675C76.588 51.3221 75.78 49.9024 75.3736 48.3629ZM58.6651 64.5792C58.0251 64.5792 57.5063 65.0978 57.5063 65.7375C57.5063 66.3772 58.0251 66.8958 58.6651 66.8958C59.3051 66.8958 59.8238 66.3772 59.8238 65.7375C59.8238 65.0978 59.3051 64.5792 58.6651 64.5792ZM82.9987 58.7877V61.1043C82.9987 61.744 83.5175 62.2626 84.1575 62.2626C84.7975 62.2626 85.3162 61.744 85.3162 61.1043V58.7877H82.9987Z" fill="#4A4A4A"/>
</svg>
