<svg width="17" height="16" viewBox="0 0 17 16" fill="none" xmlns="http://www.w3.org/2000/svg">
<path id="Vector" d="M7.79377 8.00024V8.80022H6.99378C6.78161 8.80022 6.57814 8.8845 6.42811 9.03453C6.27808 9.18455 6.1938 9.38803 6.1938 9.60019C6.1938 9.81236 6.27808 10.0158 6.42811 10.1659C6.57814 10.3159 6.78161 10.4002 6.99378 10.4002H7.79377V11.2001C7.79377 11.4123 7.87805 11.6158 8.02808 11.7658C8.1781 11.9158 8.38158 12.0001 8.59375 12.0001C8.80592 12.0001 9.0094 11.9158 9.15942 11.7658C9.30945 11.6158 9.39373 11.4123 9.39373 11.2001V10.4002H10.1937C10.4059 10.4002 10.6094 10.3159 10.7594 10.1659C10.9094 10.0158 10.9937 9.81236 10.9937 9.60019C10.9937 9.38803 10.9094 9.18455 10.7594 9.03453C10.6094 8.8845 10.4059 8.80022 10.1937 8.80022H9.39373V8.00024C9.39373 7.78808 9.30945 7.5846 9.15942 7.43457C9.0094 7.28455 8.80592 7.20027 8.59375 7.20027C8.38158 7.20027 8.1781 7.28455 8.02808 7.43457C7.87805 7.5846 7.79377 7.78808 7.79377 8.00024ZM16.3248 6.60188L9.12494 0.202078C8.97862 0.0719101 8.78959 0 8.59375 0C8.39791 0 8.20888 0.0719101 8.06256 0.202078L0.862706 6.60188C0.704003 6.74276 0.607766 6.94092 0.595163 7.15275C0.582561 7.36459 0.654627 7.57275 0.795507 7.73145C0.936387 7.89015 1.13454 7.98639 1.34638 7.99899C1.55822 8.01159 1.76638 7.93953 1.92508 7.79865L2.19388 7.55946V15.2C2.19388 15.4122 2.27816 15.6157 2.42819 15.7657C2.57822 15.9157 2.78169 16 2.99386 16H14.1936C14.4058 16 14.6093 15.9157 14.7593 15.7657C14.9093 15.6157 14.9936 15.4122 14.9936 15.2V7.55946L15.2624 7.79865C15.4211 7.93953 15.6293 8.01159 15.8411 7.99899C15.946 7.99275 16.0486 7.96591 16.1432 7.92001C16.2377 7.8741 16.3222 7.81003 16.392 7.73145C16.4618 7.65287 16.5153 7.56132 16.5497 7.46203C16.5841 7.36273 16.5986 7.25764 16.5923 7.15275C16.5861 7.04786 16.5593 6.94523 16.5134 6.85071C16.4675 6.75619 16.4034 6.67164 16.3248 6.60188ZM13.3937 14.4H3.79385V6.1371L8.59375 1.87083L13.3937 6.1371V14.4Z" fill="black"/>
</svg>
