<svg width="40" height="40" viewBox="0 0 40 40" fill="none" xmlns="http://www.w3.org/2000/svg">
<path id="Vector" d="M20 20C17.25 20 14.8958 19.0208 12.9375 17.0625C10.9792 15.1042 10 12.75 10 10C10 7.25 10.9792 4.89583 12.9375 2.9375C14.8958 0.979167 17.25 0 20 0C22.75 0 25.1042 0.979167 27.0625 2.9375C29.0208 4.89583 30 7.25 30 10C30 12.75 29.0208 15.1042 27.0625 17.0625C25.1042 19.0208 22.75 20 20 20ZM35 40H5C3.625 40 2.44833 39.5108 1.47 38.5325C0.49 37.5525 0 36.375 0 35V33C0 31.5833 0.365001 30.2808 1.095 29.0925C1.82333 27.9058 2.79167 27 4 26.375C6.58333 25.0833 9.20833 24.1142 11.875 23.4675C14.5417 22.8225 17.25 22.5 20 22.5C22.75 22.5 25.4583 22.8225 28.125 23.4675C30.7917 24.1142 33.4167 25.0833 36 26.375C37.2083 27 38.1767 27.9058 38.905 29.0925C39.635 30.2808 40 31.5833 40 33V35C40 36.375 39.5108 37.5525 38.5325 38.5325C37.5525 39.5108 36.375 40 35 40ZM5 35H35V33C35 32.5417 34.8858 32.125 34.6575 31.75C34.4275 31.375 34.125 31.0833 33.75 30.875C31.5 29.75 29.2292 28.9058 26.9375 28.3425C24.6458 27.7808 22.3333 27.5 20 27.5C17.6667 27.5 15.3542 27.7808 13.0625 28.3425C10.7708 28.9058 8.5 29.75 6.25 30.875C5.875 31.0833 5.57333 31.375 5.345 31.75C5.115 32.125 5 32.5417 5 33V35ZM20 15C21.375 15 22.5525 14.51 23.5325 13.53C24.5108 12.5517 25 11.375 25 10C25 8.625 24.5108 7.44833 23.5325 6.47C22.5525 5.49 21.375 5 20 5C18.625 5 17.4483 5.49 16.47 6.47C15.49 7.44833 15 8.625 15 10C15 11.375 15.49 12.5517 16.47 13.53C17.4483 14.51 18.625 15 20 15Z" fill="#B70022"/>
</svg>
