<svg width="25" height="24" viewBox="0 0 25 24" fill="none" xmlns="http://www.w3.org/2000/svg">
<path id="Vector" d="M21.9271 11.9955C21.9271 9.39644 21.0213 7.1915 19.2098 5.38063C17.3991 3.57065 15.1938 2.66566 12.5938 2.66566V0C14.2604 0 15.8217 0.316325 17.2778 0.948974C18.7329 1.58251 19.9995 2.43774 21.0778 3.51467C22.1551 4.59248 23.0106 5.85867 23.6444 7.31323C24.2773 8.76868 24.5938 10.3294 24.5938 11.9955H21.9271ZM16.5938 11.9955C16.5938 10.8848 16.2049 9.94068 15.4271 9.1632C14.6493 8.38571 13.7049 7.99697 12.5938 7.99697V5.33131C14.4382 5.33131 16.0106 5.98085 17.3111 7.27991C18.6106 8.57986 19.2604 10.1517 19.2604 11.9955H16.5938ZM23.1938 23.9909C20.3271 23.9909 17.5329 23.352 14.8111 22.0743C12.0884 20.7975 9.67731 19.1092 7.57775 17.0096C5.47731 14.9108 3.78842 12.5006 2.51108 9.77896C1.23286 7.05822 0.59375 4.26505 0.59375 1.39947C0.59375 0.999622 0.727083 0.666414 0.99375 0.399848C1.26042 0.133283 1.59375 0 1.99375 0H7.39375C7.70486 0 7.98264 0.099962 8.22708 0.299886C8.47153 0.499811 8.61597 0.755269 8.66042 1.06626L9.52708 5.73116C9.57153 6.04216 9.56619 6.32516 9.51108 6.58017C9.45508 6.83608 9.32708 7.06399 9.12708 7.26392L5.89375 10.5293C6.82708 12.1287 7.99953 13.6282 9.41108 15.0276C10.8217 16.4271 12.3715 17.6378 14.0604 18.6596L17.1938 15.5275C17.3938 15.3275 17.6551 15.1774 17.9778 15.077C18.2995 14.9774 18.616 14.9499 18.9271 14.9943L23.5271 15.9273C23.8382 15.9939 24.0938 16.1437 24.2938 16.3765C24.4937 16.6102 24.5938 16.8825 24.5938 17.1935V22.5914C24.5938 22.9913 24.4604 23.3245 24.1938 23.5911C23.9271 23.8576 23.5938 23.9909 23.1938 23.9909ZM4.62708 7.99697L6.82708 5.7978L6.26042 2.66566H3.29375C3.40486 3.57642 3.56042 4.47608 3.76042 5.36463C3.96042 6.25319 4.24931 7.13063 4.62708 7.99697ZM16.5604 19.9258C17.4271 20.3034 18.3106 20.6033 19.2111 20.8254C20.1106 21.0476 21.016 21.192 21.9271 21.2586V18.3264L18.7938 17.6933L16.5604 19.9258Z" fill="black"/>
</svg>
