<svg width="40" height="47" viewBox="0 0 40 47" fill="none" xmlns="http://www.w3.org/2000/svg">
<g id="Group 1464">
<path id="Vector" d="M39.0172 19.5554C39.0172 26.6612 34.3125 33.3273 29.5036 38.2696C27.1103 40.7293 24.7152 42.7376 22.9177 44.1312C22.0194 44.8277 21.2714 45.3699 20.749 45.7372C20.5246 45.895 20.3419 46.0205 20.2068 46.1121C20.0717 46.0205 19.889 45.895 19.6647 45.7372C19.1423 45.3699 18.3943 44.8277 17.496 44.1312C15.6985 42.7376 13.3034 40.7293 10.91 38.2696C6.10119 33.3273 1.39648 26.6612 1.39648 19.5554C1.39648 14.7059 3.37495 10.0522 6.90116 6.6189C10.4278 3.18514 15.2138 1.25378 20.2068 1.25378C25.1999 1.25378 29.9858 3.18514 33.5125 6.6189C37.0387 10.0522 39.0172 14.7059 39.0172 19.5554Z" fill="#B70022" stroke="white" stroke-linecap="round" stroke-linejoin="round"/>
</g>
</svg>
