<svg width="83" height="82" viewBox="0 0 83 82" fill="none" xmlns="http://www.w3.org/2000/svg">
<path id="Vector" d="M80.6881 44.1293L75.7793 37.6947C75.5143 37.3476 75.1365 37.1038 74.7111 37.0054C74.2856 36.907 73.8391 36.9602 73.4487 37.1557L64.465 41.6458H60.0259V39.5956C60.025 39.0979 59.8266 38.6208 59.4743 38.2692C59.122 37.9176 58.6446 37.7202 58.1469 37.7202H48.2237L43.9485 34.3117C43.6178 34.0471 43.2067 33.9032 42.7832 33.9038H31.3378C31.084 33.9036 30.8329 33.9548 30.5994 34.0543C30.366 34.1538 30.1551 34.2996 29.9795 34.4828L15.3296 49.8502L12.1468 46.6675C11.7888 46.327 11.3136 46.1372 10.8195 46.1372C10.3254 46.1372 9.85022 46.327 9.49215 46.6675L1.54993 54.6097C1.19815 54.9612 1.00037 55.4379 1.00006 55.9352V79.11C0.998134 79.3575 1.04522 79.603 1.13861 79.8322C1.232 80.0614 1.36983 80.2699 1.54417 80.4456C1.71851 80.6213 1.9259 80.7607 2.15439 80.8559C2.38288 80.951 2.62794 81 2.87545 81H26.0503C26.2966 81.0002 26.5405 80.9518 26.768 80.8574C26.9954 80.7631 27.202 80.6246 27.3758 80.4501L35.318 72.5079C35.4924 72.334 35.6308 72.1274 35.7252 71.9C35.8196 71.6725 35.8682 71.4287 35.8682 71.1824C35.8682 70.9361 35.8196 70.6923 35.7252 70.4648C35.6308 70.2373 35.4924 70.0307 35.318 69.8569L31.844 66.3792L34.6589 63.8301H55.4157C55.8061 63.8327 56.1878 63.7144 56.5082 63.4914L80.2839 46.8058C80.4905 46.6602 80.6656 46.4744 80.7989 46.2597C80.9321 46.0449 81.0208 45.8055 81.0595 45.5557C81.0982 45.3059 81.0863 45.0509 81.0244 44.8058C80.9624 44.5608 80.8518 44.3307 80.699 44.1293H80.6881ZM25.271 77.2346H4.75085V56.7145L10.8104 50.6477L31.3378 71.1678L25.271 77.2346ZM54.8294 60.0757H33.9379C33.4741 60.0754 33.0267 60.2466 32.6815 60.5563L29.1857 63.7063L17.9842 52.5049L32.1426 37.6656H42.1277L46.4138 41.0777C46.7454 41.3408 47.1559 41.4844 47.5791 41.4855H56.2824V44.6355L53.0888 46.8932H40.0448C39.5474 46.8932 39.0704 47.0908 38.7187 47.4425C38.3669 47.7942 38.1694 48.2713 38.1694 48.7686C38.1694 49.266 38.3669 49.743 38.7187 50.0947C39.0704 50.4464 39.5474 50.644 40.0448 50.644H53.6751C54.0659 50.6456 54.4475 50.526 54.7675 50.3017L59.243 47.1336C59.4876 46.9595 59.6872 46.7296 59.8252 46.463C59.9633 46.1964 60.0358 45.9007 60.0369 45.6005V45.4075C64.7709 45.3492 65.0695 45.5532 65.7614 45.2108L73.7473 41.2051L76.5294 44.8467L54.8294 60.0757ZM56.8979 31.3657C57.2421 31.6728 57.6874 31.8425 58.1487 31.8425C58.6101 31.8425 59.0553 31.6728 59.3996 31.3657C59.873 30.9396 71.0526 20.9108 73.6745 17.5278C74.571 16.3503 75.1886 14.9847 75.4807 13.5339C75.7728 12.0831 75.7317 10.5849 75.3605 9.15222C74.9439 7.51702 74.1618 5.99761 73.0731 4.70834C71.9844 3.41907 70.6175 2.39353 69.0752 1.70889C67.2272 0.97799 65.2044 0.809269 63.2608 1.2239C61.3172 1.63853 59.5394 2.61804 58.1505 4.03948C56.7625 2.61681 54.9846 1.63645 53.0407 1.22175C51.0968 0.807052 49.0737 0.976539 47.2259 1.70889C45.6845 2.39337 44.3184 3.41848 43.2304 4.7071C42.1424 5.99571 41.3607 7.51429 40.9442 9.14858C40.5744 10.5813 40.534 12.0792 40.826 13.5299C41.118 14.9805 41.7349 16.3461 42.6303 17.5241C45.2303 20.9144 56.4208 30.9396 56.8979 31.3657ZM44.5785 10.048C44.8609 8.96251 45.3857 7.95514 46.1136 7.10174C46.8415 6.24833 47.7534 5.57111 48.7808 5.12102C49.4156 4.82329 50.1081 4.66911 50.8092 4.66947C53.114 4.93919 55.2247 6.09173 56.6976 7.88496C56.8757 8.0982 57.0985 8.26971 57.3502 8.38738C57.6019 8.50505 57.8763 8.566 58.1542 8.56593C58.4323 8.56778 58.7074 8.50762 58.9593 8.38982C59.2113 8.27203 59.4339 8.09956 59.6108 7.88496C59.7674 7.69924 63.5182 3.27475 67.5312 5.12102C68.5589 5.57066 69.4711 6.24774 70.199 7.10121C70.9269 7.95469 71.4516 8.96228 71.7335 10.048C71.9673 10.9327 71.9976 11.8589 71.8223 12.757C71.6469 13.6551 71.2705 14.5018 70.7212 15.2336C66.7411 19.5134 62.5454 23.5875 58.1505 27.4401C53.7605 23.5873 49.5697 19.5132 45.5945 15.2336C45.0438 14.5025 44.6663 13.6559 44.4903 12.7576C44.3143 11.8594 44.3444 10.9329 44.5785 10.048Z" fill="#4A4A4A" stroke="#4A4A4A" stroke-width="2"/>
</svg>
