<svg width="25" height="24" viewBox="0 0 25 24" fill="none" xmlns="http://www.w3.org/2000/svg">
<g id="Group 4020">
<path id="Vector" d="M21.5899 1.515C21.3233 0.63 20.5766 0 19.6966 0H5.02995C4.14995 0 3.41661 0.63 3.13661 1.515L0.363281 10.5V22.5C0.363281 23.325 0.963281 24 1.69661 24H3.02995C3.76328 24 4.36328 23.325 4.36328 22.5V21H20.3633V22.5C20.3633 23.325 20.9633 24 21.6966 24H23.0299C23.7633 24 24.3633 23.325 24.3633 22.5V10.5L21.5899 1.515ZM5.49661 3H19.2166L20.6566 7.665H4.05661L5.49661 3ZM21.6966 18H3.02995V10.5H21.6966V18Z" fill="black"/>
<path id="Vector_2" d="M6.36328 16.5C7.46785 16.5 8.36328 15.4926 8.36328 14.25C8.36328 13.0074 7.46785 12 6.36328 12C5.25871 12 4.36328 13.0074 4.36328 14.25C4.36328 15.4926 5.25871 16.5 6.36328 16.5Z" fill="black"/>
<path id="Vector_3" d="M18.3633 16.5C19.4679 16.5 20.3633 15.4926 20.3633 14.25C20.3633 13.0074 19.4679 12 18.3633 12C17.2587 12 16.3633 13.0074 16.3633 14.25C16.3633 15.4926 17.2587 16.5 18.3633 16.5Z" fill="black"/>
</g>
</svg>
