<svg width="65" height="104" viewBox="0 0 65 104" fill="none" xmlns="http://www.w3.org/2000/svg">
<path id="Vector" d="M32.4865 9.74673C32.4865 7.16173 33.5128 4.68262 35.3397 2.85475C37.1666 1.02688 39.6443 0 42.2279 0C44.8115 0 47.2893 1.02688 49.1161 2.85475C50.943 4.68262 51.9693 7.16173 51.9693 9.74673C51.9693 12.3317 50.943 14.8108 49.1161 16.6387C47.2893 18.4666 44.8115 19.4935 42.2279 19.4935C39.6443 19.4935 37.1666 18.4666 35.3397 16.6387C33.5128 14.8108 32.4865 12.3317 32.4865 9.74673ZM25.6878 40.4692C25.4849 40.5504 25.3022 40.6317 25.0993 40.7129L23.4757 41.4236C20.1474 42.9059 17.5903 45.7284 16.4335 49.1804L15.9059 50.7642C14.7694 54.1755 11.0961 56.0031 7.68657 54.8659C4.27708 53.7288 2.45057 50.0535 3.58706 46.6421L4.11472 45.0583C6.4283 38.1341 11.5425 32.4891 18.1991 29.5245L19.8227 28.8138C24.044 26.9456 28.6103 25.971 33.2374 25.971C42.2888 25.971 50.4472 31.4129 53.9176 39.7585L57.0429 47.2513L61.386 49.424C64.5925 51.0282 65.8914 54.9269 64.2881 58.1352C62.6848 61.3435 58.7883 62.643 55.5817 61.0389L50.1428 58.3382C48.0525 57.2823 46.4086 55.536 45.5156 53.3633L43.5674 48.693L39.6505 61.9932L49.6963 72.9583C50.7922 74.1563 51.5634 75.598 51.9693 77.1819L56.6371 95.8834C57.5097 99.3557 55.3991 102.889 51.9084 103.762C48.4178 104.635 44.9068 102.523 44.0341 99.0308L39.5693 81.1415L25.2211 65.4858C22.2175 62.2166 21.1013 57.6478 22.2378 53.3633L25.6675 40.4692H25.6878ZM13.9576 80.8166L19.0312 68.1459C19.4574 68.755 19.9445 69.3236 20.4518 69.8921L28.7117 78.9079L25.769 86.2585C25.282 87.4769 24.5513 88.5937 23.6178 89.5277L11.0961 102.056C8.55923 104.595 4.43944 104.595 1.90262 102.056C-0.634205 99.5181 -0.634205 95.3961 1.90262 92.8579L13.9576 80.8166Z" fill="#4A4A4A"/>
</svg>
