<svg width="191" height="32" viewBox="0 0 191 32" fill="none" xmlns="http://www.w3.org/2000/svg">
<g id="Group 561">
<path id="Vector" d="M174.055 8.63158V21.7684L179.36 25.0105L177.971 18.9474L182.644 14.9053L176.497 14.3579L174.055 8.63158ZM163.655 32L166.392 20.1684L157.213 12.2105L169.339 11.1579L174.055 0L178.771 11.1579L190.897 12.2105L181.718 20.1684L184.455 32L174.055 25.7263L163.655 32Z" fill="#EA1840"/>
<path id="Vector_2" d="M124.329 32L127.066 20.1684L117.887 12.2105L130.013 11.1579L134.729 0L139.445 11.1579L151.571 12.2105L142.392 20.1684L145.129 32L134.729 25.7263L124.329 32Z" fill="#EA1840"/>
<path id="Vector_3" d="M85.0476 32L87.7844 20.1684L78.6055 12.2105L90.7318 11.1579L95.4476 0L100.163 11.1579L112.29 12.2105L103.111 20.1684L105.848 32L95.4476 25.7263L85.0476 32Z" fill="#EA1840"/>
<path id="Vector_4" d="M45.7292 32L48.4661 20.1684L39.2871 12.2105L51.4134 11.1579L56.1292 0L60.845 11.1579L72.9713 12.2105L63.7924 20.1684L66.5292 32L56.1292 25.7263L45.7292 32Z" fill="#EA1840"/>
<path id="Vector_5" d="M6.4421 32L9.17895 20.1684L0 12.2105L12.1263 11.1579L16.8421 0L21.5579 11.1579L33.6842 12.2105L24.5053 20.1684L27.2421 32L16.8421 25.7263L6.4421 32Z" fill="#EA1840"/>
</g>
</svg>
