<svg width="40" height="41" viewBox="0 0 40 41" fill="none" xmlns="http://www.w3.org/2000/svg">
<path id="Vector" d="M20 20.0342C17.25 20.0342 14.8958 19.055 12.9375 17.0967C10.9792 15.1383 10 12.7842 10 10.0342C10 7.28418 10.9792 4.93001 12.9375 2.97168C14.8958 1.01335 17.25 0.0341797 20 0.0341797C22.75 0.0341797 25.1042 1.01335 27.0625 2.97168C29.0208 4.93001 30 7.28418 30 10.0342C30 12.7842 29.0208 15.1383 27.0625 17.0967C25.1042 19.055 22.75 20.0342 20 20.0342ZM35 40.0342H5C3.625 40.0342 2.44833 39.545 1.47 38.5667C0.49 37.5867 0 36.4092 0 35.0342V33.0342C0 31.6175 0.365001 30.315 1.095 29.1267C1.82333 27.94 2.79167 27.0342 4 26.4092C6.58333 25.1175 9.20833 24.1483 11.875 23.5017C14.5417 22.8567 17.25 22.5342 20 22.5342C22.75 22.5342 25.4583 22.8567 28.125 23.5017C30.7917 24.1483 33.4167 25.1175 36 26.4092C37.2083 27.0342 38.1767 27.94 38.905 29.1267C39.635 30.315 40 31.6175 40 33.0342V35.0342C40 36.4092 39.5108 37.5867 38.5325 38.5667C37.5525 39.545 36.375 40.0342 35 40.0342ZM5 35.0342H35V33.0342C35 32.5758 34.8858 32.1592 34.6575 31.7842C34.4275 31.4092 34.125 31.1175 33.75 30.9092C31.5 29.7842 29.2292 28.94 26.9375 28.3767C24.6458 27.815 22.3333 27.5342 20 27.5342C17.6667 27.5342 15.3542 27.815 13.0625 28.3767C10.7708 28.94 8.5 29.7842 6.25 30.9092C5.875 31.1175 5.57333 31.4092 5.345 31.7842C5.115 32.1592 5 32.5758 5 33.0342V35.0342ZM20 15.0342C21.375 15.0342 22.5525 14.5442 23.5325 13.5642C24.5108 12.5858 25 11.4092 25 10.0342C25 8.65918 24.5108 7.48251 23.5325 6.50418C22.5525 5.52418 21.375 5.03418 20 5.03418C18.625 5.03418 17.4483 5.52418 16.47 6.50418C15.49 7.48251 15 8.65918 15 10.0342C15 11.4092 15.49 12.5858 16.47 13.5642C17.4483 14.5442 18.625 15.0342 20 15.0342Z" fill="black"/>
</svg>
