<svg width="74" height="84" viewBox="0 0 74 84" fill="none" xmlns="http://www.w3.org/2000/svg">
<g id="Group 3035">
<path id="Vector" d="M43.2655 35.1327C44.346 33.9022 46.0113 31.417 46.2319 29.6872L46.3969 28.3935C46.5406 27.2657 46.9099 26.1785 47.4826 25.1964C48.2383 23.901 48.6364 22.4282 48.6364 20.9285V14.6979C48.6364 8.23733 43.3991 3 36.9386 3C30.4781 3 25.2407 8.23733 25.2407 14.6979V21.2191C25.2407 22.5341 25.5469 23.831 26.135 25.0071L26.3297 25.3964C26.756 26.2492 27.0354 27.1678 27.1559 28.1135L27.3565 29.6874C27.5656 31.3285 29.1686 33.7427 30.1594 34.9412M30.0902 35.6103L29.4507 43.0489L11.4215 48.8442C7.82789 49.983 5.38598 53.3183 5.38598 57.0878L3 80.5401M70.3554 80.5401L67.9692 57.0878C67.9692 53.3181 65.5273 49.9828 61.9338 48.8442L43.9043 43.0489L43.2649 35.6103" stroke="#4A4A4A" stroke-width="6" stroke-miterlimit="10" stroke-linecap="round" stroke-linejoin="round"/>
<path id="Vector_2" d="M53.624 68.056C53.8184 68.3189 54.0512 68.5517 54.3141 68.7461C54.0512 68.9405 53.8184 69.1733 53.624 69.4361C53.4296 69.1733 53.1968 68.9405 52.934 68.7461C53.1968 68.5517 53.4296 68.3189 53.624 68.056Z" fill="#4A4A4A" stroke="#4A4A4A" stroke-width="5"/>
<path id="Union" fill-rule="evenodd" clip-rule="evenodd" d="M32.5887 48.1436C32.1654 46.8294 30.7568 46.1072 29.4426 46.5306C28.1284 46.9539 27.4062 48.3625 27.8296 49.6767L34.1665 69.3482C34.165 69.3839 34.1642 69.4199 34.1642 69.4561V80.576C34.1642 81.9567 35.2835 83.076 36.6642 83.076C38.045 83.076 39.1642 81.9567 39.1642 80.576V70.135C39.1698 70.1184 39.1751 70.1017 39.1803 70.0849L45.5071 49.6495C45.9154 48.3306 45.1773 46.9303 43.8583 46.522C42.5394 46.1137 41.1391 46.8518 40.7308 48.1708L36.7449 61.0452L32.5887 48.1436Z" fill="#4A4A4A"/>
</g>
</svg>
