<svg width="88" height="86" viewBox="0 0 88 86" fill="none" xmlns="http://www.w3.org/2000/svg">
<path id="Vector" d="M41.4856 24.9917C41.4856 30.5125 37.0084 34.9879 31.4854 34.9879C25.9626 34.9879 21.4854 30.5125 21.4854 24.9917C21.4854 30.5125 17.0083 34.9879 11.4854 34.9879C10.7987 34.9879 10.1282 34.8952 9.48437 34.7212M9.48437 34.7212C5.2656 33.5821 2.18888 28.9574 3.19024 24.0898C3.34272 23.3485 3.65532 22.6527 3.99388 21.9758L11.2743 7.42061C12.6294 4.71139 15.3995 3 18.4297 3H64.21C67.4104 3 70.3028 4.90668 71.5632 7.84729L75.4844 16.9947M9.48437 34.7212V74.9728H17.4844M48.7148 46.2141L70.254 67.7452M48.7148 46.2141L37.9452 56.9796C31.9974 62.9254 31.9974 72.5649 37.9452 78.5107C43.8932 84.4561 53.5364 84.4561 59.4844 78.5107L70.254 67.7452M48.7148 46.2141L59.4844 35.4486C65.4324 29.503 75.0756 29.503 81.0237 35.4486C86.9713 41.3943 86.9713 51.0339 81.0237 56.9796L70.254 67.7452" stroke="#4A4A4A" stroke-width="4.5" stroke-linecap="round" stroke-linejoin="round"/>
</svg>
