<svg width="16" height="16" viewBox="0 0 16 16" fill="none" xmlns="http://www.w3.org/2000/svg">
<path id="Vector" d="M7.20002 8.00024V8.80022H6.40003C6.18786 8.80022 5.98439 8.8845 5.83436 9.03453C5.68433 9.18455 5.60005 9.38803 5.60005 9.60019C5.60005 9.81236 5.68433 10.0158 5.83436 10.1659C5.98439 10.3159 6.18786 10.4002 6.40003 10.4002H7.20002V11.2001C7.20002 11.4123 7.2843 11.6158 7.43433 11.7658C7.58435 11.9158 7.78783 12.0001 8 12.0001C8.21217 12.0001 8.41565 11.9158 8.56567 11.7658C8.7157 11.6158 8.79998 11.4123 8.79998 11.2001V10.4002H9.59997C9.81214 10.4002 10.0156 10.3159 10.1656 10.1659C10.3157 10.0158 10.4 9.81236 10.4 9.60019C10.4 9.38803 10.3157 9.18455 10.1656 9.03453C10.0156 8.8845 9.81214 8.80022 9.59997 8.80022H8.79998V8.00024C8.79998 7.78808 8.7157 7.5846 8.56567 7.43457C8.41565 7.28455 8.21217 7.20027 8 7.20027C7.78783 7.20027 7.58435 7.28455 7.43433 7.43457C7.2843 7.5846 7.20002 7.78808 7.20002 8.00024ZM15.731 6.60188L8.53119 0.202078C8.38487 0.0719101 8.19584 0 8 0C7.80416 0 7.61513 0.0719101 7.46881 0.202078L0.268956 6.60188C0.110253 6.74276 0.0140156 6.94092 0.00141341 7.15275C-0.0111888 7.36459 0.0608771 7.57275 0.201757 7.73145C0.342637 7.89015 0.540792 7.98639 0.752629 7.99899C0.964465 8.01159 1.17263 7.93953 1.33133 7.79865L1.60013 7.55946V15.2C1.60013 15.4122 1.68441 15.6157 1.83444 15.7657C1.98447 15.9157 2.18794 16 2.40011 16H13.5999C13.8121 16 14.0155 15.9157 14.1656 15.7657C14.3156 15.6157 14.3999 15.4122 14.3999 15.2V7.55946L14.6687 7.79865C14.8274 7.93953 15.0355 8.01159 15.2474 7.99899C15.3523 7.99275 15.4549 7.96591 15.5494 7.92001C15.6439 7.8741 15.7285 7.81003 15.7982 7.73145C15.868 7.65287 15.9216 7.56132 15.956 7.46203C15.9903 7.36273 16.0048 7.25764 15.9986 7.15275C15.9923 7.04786 15.9655 6.94523 15.9196 6.85071C15.8737 6.75619 15.8096 6.67164 15.731 6.60188ZM12.7999 14.4H3.2001V6.1371L8 1.87083L12.7999 6.1371V14.4Z" fill="white"/>
</svg>
