<svg width="90" height="86" viewBox="0 0 90 86" fill="none" xmlns="http://www.w3.org/2000/svg">
<path id="Vector" d="M68.3667 82.9697V78.2656C68.3667 73.0695 64.1531 68.8574 58.955 68.8574M58.955 68.8574H30.7197M58.955 68.8574H77.7785C82.9766 68.8574 87.1903 64.6454 87.1903 59.4492V12.4082C87.1903 7.21219 82.9766 3 77.7785 3H11.8961C6.69816 3 2.48438 7.21219 2.48438 12.4082V59.4492C2.48438 64.6454 6.69816 68.8574 11.8961 68.8574H30.7197M21.3079 82.9697V78.2656C21.3079 73.0695 25.5217 68.8574 30.7197 68.8574M21.3079 35.9287H34.3798L39.6086 21.8164L49.5432 50.041L55.8175 35.9287H68.3667" stroke="#4A4A4A" stroke-width="4.5" stroke-linecap="round" stroke-linejoin="round"/>
</svg>
