<svg width="82" height="80" viewBox="0 0 82 80" fill="none" xmlns="http://www.w3.org/2000/svg">
<path id="Union" fill-rule="evenodd" clip-rule="evenodd" d="M77.095 39.9849C77.095 59.6143 61.1763 75.527 41.5395 75.527C25.9161 75.527 12.6463 65.4541 7.87463 51.4507L4.87281 53.3131C4.58841 53.4836 4.31275 53.5786 4.04686 53.6044C4.31159 53.5781 4.58601 53.4833 4.86907 53.3135L69.3135 13.3286C74.4938 10.2217 55.5222 -1.57675 47.5307 0.445505C45.5762 0.152091 43.5756 0 41.5395 0C23.5265 0 8.29425 11.9023 3.28413 28.2683C-1.96171 36.1626 -0.3038 53.6907 3.92247 53.6118C9.49708 68.9856 24.2351 79.9697 41.5395 79.9697C63.6308 79.9697 81.5395 62.0678 81.5395 39.9849C81.5395 29.1314 77.2137 19.288 70.1915 12.0836C70.1406 12.5775 69.8628 13.0011 69.3172 13.3283L66.7497 14.9215C73.1437 21.3479 77.095 30.205 77.095 39.9849ZM10.3744 22.8621C16.2681 12.1658 27.5125 4.82969 40.502 4.45761L10.3744 22.8621ZM55.9813 35.5421C55.3678 35.5421 54.8702 36.0394 54.8702 36.6528C54.8702 37.2661 55.3678 37.7634 55.9813 37.7634C56.5951 37.7634 57.0924 37.2661 57.0924 36.6528C57.0924 36.0394 56.5951 35.5421 55.9813 35.5421ZM50.4258 36.6528C50.4258 33.5857 52.9131 31.0993 55.9813 31.0993C59.0496 31.0993 61.5369 33.5857 61.5369 36.6528C61.5369 39.7198 59.0496 42.2062 55.9813 42.2062C52.9131 42.2062 50.4258 39.7198 50.4258 36.6528ZM27.0937 42.206C26.0086 42.206 24.9962 41.895 24.1406 41.3572L32.6217 36.0952C32.64 36.2785 32.6493 36.4644 32.6493 36.6526C32.6493 39.7196 30.162 42.206 27.0937 42.206ZM5.07367 47.9575L64.411 11.1415C63.357 10.2376 61.8668 9.19466 60.0557 8.17902C57.4793 6.73419 54.6468 5.56594 52.2204 5.0062C51.0093 4.72682 50.0348 4.63092 49.3199 4.66233C48.7084 4.68918 48.4675 4.79975 48.4386 4.81299L48.4357 4.81427L48.3726 4.85633L8.3214 29.3228C7.4248 29.891 6.34363 31.3192 5.52578 33.9948C4.7382 36.5712 4.38945 39.6951 4.45145 42.6695C4.4956 44.7881 4.74296 46.61 5.07367 47.9575ZM30.0536 60.6582C30.0543 60.6601 30.0547 60.661 30.0548 60.6608C30.0551 60.6606 30.0547 60.6582 30.0535 60.6539C30.0525 60.6504 30.051 60.6457 30.0488 60.6399C30.0509 60.6491 30.0526 60.655 30.0536 60.6582ZM30.1873 59.3193C30.1224 59.5568 30.0784 59.7812 30.053 59.9809C35.1397 58.2939 38.3573 57.3412 41.6244 57.3596C44.7839 57.3774 47.8639 58.3059 52.5813 59.8414C52.5657 59.7327 52.5453 59.619 52.5197 59.5021C52.4235 59.0596 52.2906 58.7387 52.2148 58.6063C52.173 58.5332 52.1501 58.5038 52.0958 58.4341L52.0953 58.4334L52.0941 58.432C52.0412 58.3639 51.9584 58.2575 51.8006 58.0371C49.8675 55.3408 45.989 53.3132 41.2944 53.3132C36.4175 53.3132 32.4344 55.4977 30.581 58.3399C30.4897 58.4801 30.3204 58.8333 30.1873 59.3193ZM52.5854 60.725C52.5838 60.7303 52.5832 60.7333 52.5835 60.7337C52.5839 60.7344 52.587 60.7266 52.5913 60.7086C52.5885 60.7154 52.5866 60.7209 52.5854 60.725ZM26.8579 55.9137C26.4455 56.5462 26.1164 57.3576 25.9004 58.1476C25.6828 58.9421 25.5282 59.902 25.5997 60.8432C25.6675 61.7335 25.9804 63.0444 27.1522 63.9023C28.3746 64.7973 29.845 64.7086 31.0893 64.3179L31.107 64.3123L31.1246 64.3065C36.5399 62.5059 39.1213 61.7882 41.5993 61.8022C44.0857 61.8162 46.6082 62.5643 51.9288 64.3017C53.0537 64.6966 54.4466 64.7808 55.6082 63.8703C56.6528 63.0515 56.9464 61.8435 57.0306 61.0533C57.1222 60.1946 57.0264 59.3089 56.8624 58.5567C56.6999 57.8108 56.4342 57.0304 56.0699 56.3958C55.8784 56.0619 55.5637 55.6476 55.4515 55.5003L55.4488 55.4968C55.4307 55.4729 55.4183 55.4566 55.413 55.4492C52.5104 51.4001 47.1733 48.8704 41.2944 48.8704C35.2017 48.8704 29.6766 51.5911 26.8579 55.9137Z" fill="#4A4A4A"/>
</svg>
