<svg width="31" height="32" viewBox="0 0 31 32" fill="none" xmlns="http://www.w3.org/2000/svg">
<g id="Group 4478">
<path id="Vector" d="M23.6135 22.7355V24.4885H21.8605C21.3955 24.4885 20.9496 24.6732 20.6209 25.0019C20.2921 25.3307 20.1074 25.7766 20.1074 26.2415C20.1074 26.7064 20.2921 27.1523 20.6209 27.4811C20.9496 27.8099 21.3955 27.9945 21.8605 27.9945H23.6135V29.7476C23.6135 30.2125 23.7982 30.6584 24.127 30.9872C24.4557 31.3159 24.9016 31.5006 25.3666 31.5006C25.8315 31.5006 26.2774 31.3159 26.6062 30.9872C26.9349 30.6584 27.1196 30.2125 27.1196 29.7476V27.9945H28.8727C29.3376 27.9945 29.7835 27.8099 30.1123 27.4811C30.441 27.1523 30.6257 26.7064 30.6257 26.2415C30.6257 25.7766 30.441 25.3307 30.1123 25.0019C29.7835 24.6732 29.3376 24.4885 28.8727 24.4885H27.1196V22.7355C27.1196 22.2705 26.9349 21.8246 26.6062 21.4959C26.2774 21.1671 25.8315 20.9824 25.3666 20.9824C24.9016 20.9824 24.4557 21.1671 24.127 21.4959C23.7982 21.8246 23.6135 22.2705 23.6135 22.7355Z" fill="#4A4A4A"/>
<path id="Union" fill-rule="evenodd" clip-rule="evenodd" d="M20.7246 1.5C20.7246 0.671573 20.053 0 19.2246 0C18.3962 0 17.7246 0.671573 17.7246 1.5V2.45493H9.81641V1.5C9.81641 0.671573 9.14483 0 8.31641 0C7.48798 0 6.81641 0.671573 6.81641 1.5V2.45493H4.22689C2.04511 2.45493 0 4.08038 0 6.40897V11.3164V23.5872C0 25.9158 2.04511 27.5413 4.22689 27.5413H17.0381C17.8665 27.5413 18.5381 26.8697 18.5381 26.0413C18.5381 25.2128 17.8665 24.5413 17.0381 24.5413H4.22689C3.39663 24.5413 3 23.9693 3 23.5872V12.8164H24.542V16.7589C24.542 17.5873 25.2135 18.2589 26.042 18.2589C26.8704 18.2589 27.542 17.5873 27.542 16.7589V11.3164V6.40897C27.542 4.08038 25.4969 2.45493 23.3151 2.45493H20.7246V1.5ZM24.542 9.81641V6.40897C24.542 6.0269 24.1453 5.45493 23.3151 5.45493H20.7246V6.40918C20.7246 7.23761 20.053 7.90918 19.2246 7.90918C18.3962 7.90918 17.7246 7.23761 17.7246 6.40918V5.45493H9.81641V6.40918C9.81641 7.23761 9.14483 7.90918 8.31641 7.90918C7.48798 7.90918 6.81641 7.23761 6.81641 6.40918V5.45493H4.22689C3.39663 5.45493 3 6.0269 3 6.40897V9.81641H24.542Z" fill="#4A4A4A"/>
<g id="Vector_2">
<path d="M12.7625 17.2477C13.0616 17.517 13.432 17.6516 13.8735 17.6516C14.314 17.6526 14.6838 17.5184 14.983 17.2491C15.2822 16.9798 15.4318 16.6465 15.4318 16.2492C15.4329 15.8527 15.2838 15.5199 14.9846 15.2506C14.6854 14.9813 14.315 14.8467 13.8735 14.8467C13.433 14.8457 13.0632 14.9799 12.764 15.2492C12.4648 15.5185 12.3152 15.8518 12.3152 16.2492C12.3142 16.6456 12.4633 16.9784 12.7625 17.2477Z" fill="#4A4A4A"/>
<path d="M6.52927 17.2477C6.82846 17.517 7.19882 17.6516 7.64033 17.6516C8.08081 17.6526 8.45065 17.5184 8.74984 17.2491C9.04903 16.9798 9.19863 16.6465 9.19863 16.2492C9.19967 15.8527 9.05059 15.5199 8.7514 15.2506C8.45221 14.9813 8.08185 14.8467 7.64033 14.8467C7.19985 14.8457 6.83002 14.9799 6.53083 15.2492C6.23163 15.5185 6.08204 15.8518 6.08204 16.2492C6.081 16.6456 6.23008 16.9784 6.52927 17.2477Z" fill="#4A4A4A"/>
<path d="M18.9956 17.2477C19.2948 17.517 19.6652 17.6516 20.1067 17.6516C20.5472 17.6526 20.917 17.5184 21.2162 17.2491C21.5154 16.9798 21.665 16.6465 21.665 16.2492C21.666 15.8527 21.517 15.5199 21.2178 15.2506C20.9186 14.9813 20.5482 14.8467 20.1067 14.8467C19.6662 14.8457 19.2964 14.9799 18.9972 15.2492C18.698 15.5185 18.5484 15.8518 18.5484 16.2492C18.5474 16.6456 18.6965 16.9784 18.9956 17.2477Z" fill="#4A4A4A"/>
<path d="M12.7625 22.8576C13.0616 23.1269 13.432 23.2615 13.8735 23.2615C14.314 23.2624 14.6838 23.1283 14.983 22.859C15.2822 22.5897 15.4318 22.2564 15.4318 21.859C15.4329 21.4626 15.2838 21.1297 14.9846 20.8605C14.6854 20.5912 14.315 20.4566 13.8735 20.4566C13.433 20.4556 13.0632 20.5898 12.764 20.8591C12.4648 21.1283 12.3152 21.4617 12.3152 21.859C12.3142 22.2555 12.4633 22.5883 12.7625 22.8576Z" fill="#4A4A4A"/>
<path d="M6.52927 22.8576C6.82846 23.1269 7.19882 23.2615 7.64033 23.2615C8.08081 23.2624 8.45065 23.1283 8.74984 22.859C9.04903 22.5897 9.19863 22.2564 9.19863 21.859C9.19967 21.4626 9.05059 21.1297 8.7514 20.8605C8.45221 20.5912 8.08185 20.4566 7.64033 20.4566C7.19985 20.4556 6.83002 20.5898 6.53083 20.8591C6.23163 21.1283 6.08204 21.4617 6.08204 21.859C6.081 22.2555 6.23008 22.5883 6.52927 22.8576Z" fill="#4A4A4A"/>
<path d="M18.9956 22.8576C19.2948 23.1269 19.6652 23.2615 20.1067 23.2615C20.5472 23.2624 20.917 23.1283 21.2162 22.859C21.5154 22.5897 21.665 22.2564 21.665 21.859C21.666 21.4626 21.517 21.1297 21.2178 20.8605C20.9186 20.5912 20.5482 20.4566 20.1067 20.4566C19.6662 20.4556 19.2964 20.5898 18.9972 20.8591C18.698 21.1283 18.5484 21.4617 18.5484 21.859C18.5474 22.2555 18.6965 22.5883 18.9956 22.8576Z" fill="#4A4A4A"/>
</g>
</g>
</svg>
