<svg width="80" height="80" viewBox="0 0 80 80" fill="none" xmlns="http://www.w3.org/2000/svg">
<path id="Union" fill-rule="evenodd" clip-rule="evenodd" d="M2.35816 18.9172C1.35458 17.914 1.35458 16.2875 2.35816 15.2843L16.8952 0.752415C17.8988 -0.250805 19.5259 -0.250805 20.5295 0.752415C21.5329 1.75563 21.5329 3.38217 20.5295 4.38539L18.7134 6.2007L27.798 15.2818L35.0665 8.01598C36.0701 7.01279 37.6972 7.01277 38.7008 8.01598C39.7042 9.01914 39.7042 10.6458 38.7008 11.6491L35.0656 15.2829L65.9578 46.1641C69.6834 49.8885 70.6428 55.3311 68.8359 59.9403L71.4088 62.5122C72.7536 63.8567 73.1974 65.7607 72.7401 67.4744L78.6778 73.4101C79.6814 74.4133 79.6814 76.04 78.6778 77.043C77.6743 78.0463 76.0473 78.0463 75.0436 77.043L69.1068 71.1083C67.3918 71.5667 65.4858 71.1234 64.1404 69.7782L61.5674 67.2062C56.9565 69.0123 51.5121 68.0532 47.7865 64.329L43.0339 59.5762L58.0634 44.5521L31.9247 18.4226L20.0351 30.3079L25.2965 35.5676H19.015L16.8943 33.4476L13.2608 37.0797C12.2574 38.0829 10.6303 38.0829 9.62668 37.0797C8.62308 36.0766 8.62308 34.45 9.62668 33.4467L16.8952 26.1807L7.8107 17.0996L5.99242 18.9172C4.98884 19.9205 3.36173 19.9205 2.35816 18.9172ZM15.5726 9.34039L24.6571 18.4217L20.036 23.0411L10.9515 13.96L15.5726 9.34039ZM50.9273 61.1893L49.8082 60.0704L61.6978 48.1851L62.8169 49.3038C65.2555 51.7417 65.8829 55.3045 64.6989 58.3209L59.9477 63.0704C56.9301 64.2541 53.3659 63.627 50.9273 61.1893ZM65.9578 64.329C65.7921 64.4944 65.6233 64.6544 65.4512 64.8092L67.2812 66.6385C67.5537 66.9109 67.9955 66.9109 68.268 66.6385C68.5405 66.3661 68.5405 65.9245 68.268 65.6521L66.4379 63.8226C66.2834 63.9946 66.1232 64.1636 65.9578 64.329ZM22.747 48.8882C23.9737 48.8882 24.968 49.8822 24.968 51.1083V55.5485H29.4099C30.6365 55.5485 31.6308 56.5425 31.6308 57.7686C31.6308 58.9948 30.6365 59.9887 29.4099 59.9887H24.968V64.4289C24.968 65.6551 23.9737 66.649 22.747 66.649C21.5204 66.649 20.5261 65.6551 20.5261 64.4289V59.9887H16.0842C14.8576 59.9887 13.8633 58.9948 13.8633 57.7686C13.8633 56.5425 14.8576 55.5485 16.0842 55.5485H20.5261V51.1083C20.5261 49.8822 21.5204 48.8882 22.747 48.8882ZM21.6362 79.9696C15.6415 78.6202 10.2826 75.2437 6.44599 70.3983C2.60953 65.5529 0.525624 59.5296 0.539128 53.3248V45.3354C0.539128 43.9225 1.09472 42.5673 2.08366 41.5683C3.07262 40.569 4.41392 40.0078 5.81249 40.0078H37.4636C38.8621 40.0078 40.2033 40.569 41.1923 41.5683C42.1813 42.5673 42.737 43.9225 42.737 45.3354V53.3248C42.7503 59.53 40.6657 65.5538 36.8286 70.3992C32.9915 75.2446 27.6317 78.6211 21.6362 79.9696ZM38.2951 53.3344V53.3248V45.3354C38.2951 45.0849 38.196 44.854 38.0348 44.6913C37.8753 44.5299 37.6688 44.448 37.4636 44.448H5.81249C5.60725 44.448 5.40079 44.5299 5.24115 44.6913C5.07991 44.854 4.98101 45.0849 4.98101 45.3354V53.3344C4.96968 58.5401 6.71837 63.5877 9.92898 67.6427C12.9284 71.4309 17.034 74.1387 21.6365 75.3951C26.2396 74.1392 30.3459 71.4315 33.3459 67.6434C36.557 63.5884 38.3062 58.5403 38.2951 53.3344Z" fill="#4A4A4A"/>
</svg>
