<svg width="43" height="42" viewBox="0 0 43 42" fill="none" xmlns="http://www.w3.org/2000/svg">
<path id="Union" fill-rule="evenodd" clip-rule="evenodd" d="M4 20.9982C4 11.6106 11.6113 4 21.0009 4C30.3905 4 38.0018 11.6106 38.0018 20.9982C38.0018 30.3858 30.3905 37.9965 21.0009 37.9965C11.6113 37.9965 4 30.3858 4 20.9982ZM21.0009 0C9.40267 0 0 9.40097 0 20.9982C0 32.5955 9.40267 41.9965 21.0009 41.9965C32.5991 41.9965 42.0018 32.5955 42.0018 20.9982C42.0018 9.40097 32.5991 0 21.0009 0ZM23 9.60059C23 8.49602 22.1046 7.60059 21 7.60059C19.8954 7.60059 19 8.49602 19 9.60059V20.9995C19 21.7571 19.428 22.4497 20.1057 22.7884L27.706 26.5881C28.694 27.082 29.8953 26.6815 30.3893 25.6935C30.8832 24.7055 30.4827 23.5042 29.4947 23.0103L23 19.7634V9.60059Z" fill="#B70022"/>
</svg>
