<svg width="24" height="24" viewBox="0 0 24 24" fill="none" xmlns="http://www.w3.org/2000/svg">
<path id="Vector" d="M0.000133134 8.98424C-0.00317415 9.18694 0.0552072 9.38586 0.167536 9.55462C0.279866 9.72338 0.440837 9.85402 0.629106 9.9292L10.2297 13.77L14.0705 23.3716C14.1447 23.5573 14.2729 23.7165 14.4385 23.8287C14.6041 23.9408 14.7995 24.0007 14.9995 24.0006H15.0155C15.218 23.9974 15.4148 23.9328 15.5798 23.8153C15.7448 23.6978 15.8702 23.533 15.9395 23.3426L23.9391 1.34357C24.0046 1.1646 24.0176 0.970649 23.9765 0.784552C23.9355 0.598455 23.8421 0.427964 23.7074 0.293157C23.5727 0.15835 23.4023 0.0648418 23.2162 0.0236448C23.0301 -0.0175522 22.8362 -0.00472225 22.6572 0.0606234L0.658105 8.06028C0.467679 8.12971 0.302817 8.25531 0.185328 8.42048C0.0678395 8.58564 0.00326019 8.78258 0.000133134 8.98524V8.98424Z" fill="#B70022"/>
</svg>
