<svg width="87" height="88" viewBox="0 0 87 88" fill="none" xmlns="http://www.w3.org/2000/svg">
<g id="Group 3436">
<g id="Group">
<path id="Vector" d="M43.5 88.0001C67.5244 88.0001 87 68.3007 87 44.0001C87 19.6996 67.5244 0.00012207 43.5 0.00012207C19.4756 0.00012207 0 19.6996 0 44.0001C0 68.3007 19.4756 88.0001 43.5 88.0001Z" fill="white"/>
<g id="Group_2">
<path id="Vector_2" d="M43.0587 86.597C66.2348 86.597 85.0227 67.5931 85.0227 44.1507C85.0227 20.7082 66.2348 1.70435 43.0587 1.70435C19.8826 1.70435 1.09473 20.7082 1.09473 44.1507C1.09473 67.5931 19.8826 86.597 43.0587 86.597Z" stroke="#B84027" stroke-width="1.6824" stroke-miterlimit="10"/>
<path id="Vector_3" d="M43.0583 76.0223C60.4605 76.0223 74.5678 61.7528 74.5678 44.1506C74.5678 26.5484 60.4605 12.2789 43.0583 12.2789C25.6561 12.2789 11.5488 26.5484 11.5488 44.1506C11.5488 61.7528 25.6561 76.0223 43.0583 76.0223Z" stroke="#B84027" stroke-width="1.6824" stroke-miterlimit="10"/>
<g id="Group_3">
<path id="Vector_4" d="M6.46994 55.4466L6.31268 54.9411L10.4041 51.2429L10.5838 51.8252L9.50547 52.7852L10.3142 55.3927L11.7435 55.5631L11.9148 56.117L6.46994 55.4466ZM9.09269 53.1488L7.0147 55.0036L9.76943 55.3302L9.09269 53.1488Z" fill="#B84027"/>
<path id="Vector_5" d="M7.92736 51.3225L7.91332 51.3254C6.52613 51.5469 5.21476 50.6806 4.98731 49.2207C4.8469 48.3203 5.07996 47.7323 5.46467 47.1614L5.93082 47.4795C5.60227 47.9595 5.39728 48.4736 5.50117 49.144C5.67247 50.2432 6.68339 50.9249 7.80943 50.7459L7.82346 50.7431C8.95793 50.5613 9.71893 49.5927 9.55044 48.502C9.44373 47.8204 9.11518 47.417 8.59288 47.0137L8.89334 46.5876C9.49146 47.0222 9.9239 47.5335 10.0643 48.4339C10.2833 49.8654 9.33421 51.0981 7.92736 51.3225Z" fill="#B84027"/>
<path id="Vector_6" d="M7.19162 46.0621H7.17758C5.77354 46.0848 4.59415 45.0424 4.56888 43.5654C4.55484 42.6537 4.86371 42.1055 5.32424 41.5942L5.74266 41.9748C5.35233 42.4037 5.07714 42.8837 5.08837 43.5654C5.10522 44.676 6.01222 45.494 7.15511 45.477H7.16915C8.31766 45.4571 9.20501 44.605 9.18816 43.5001C9.17693 42.8127 8.90737 42.3639 8.44684 41.8896L8.80346 41.5118C9.33699 42.0259 9.69363 42.594 9.70767 43.5058C9.72732 44.9515 8.61812 46.0365 7.19162 46.0621Z" fill="#B84027"/>
<path id="Vector_7" d="M4.76855 39.9837L5.0578 37.8449C5.14204 37.2342 5.38915 36.7684 5.74016 36.4986C6.01254 36.2912 6.37479 36.1947 6.7623 36.2486L6.77634 36.2515C7.59068 36.3651 7.99224 36.9985 8.02594 37.7995L10.2415 36.5497L10.1488 37.2399L8.04279 38.4158L7.84903 39.836L9.75852 40.1002L9.6827 40.6626L4.76855 39.9837ZM7.55979 38.2426C7.66088 37.4955 7.3548 36.9104 6.72299 36.8224L6.70895 36.8195C6.10521 36.7372 5.67557 37.1547 5.56606 37.9557L5.35826 39.4895L7.35199 39.7678L7.55979 38.2426Z" fill="#B84027"/>
<path id="Vector_8" d="M5.68927 34.3259L6.6777 30.8379L7.16912 30.9799L6.33513 33.9254L7.96381 34.3969L8.71077 31.7638L9.20218 31.9059L8.45522 34.5389L10.126 35.0217L10.9713 32.0422L11.4627 32.1842L10.4658 35.7091L5.68927 34.3259Z" fill="#B84027"/>
<path id="Vector_9" d="M7.26459 29.1933L7.98064 27.6084C8.62931 26.1711 10.0502 25.6286 11.3223 26.2166L11.3363 26.2223C12.6084 26.8102 13.1475 28.256 12.4989 29.6932L11.7828 31.2781L7.26459 29.1933ZM12.0271 29.4745C12.5494 28.3184 12.1057 27.2249 11.106 26.7619L11.092 26.7563C10.0923 26.2961 8.97189 26.6682 8.44959 27.8242L7.96661 28.895L11.5413 30.5453L12.0271 29.4745Z" fill="#B84027"/>
<path id="Vector_10" d="M9.94354 23.7512L10.23 23.2655L14.4926 25.8389L14.2062 26.3246L9.94354 23.7512Z" fill="#B84027"/>
<path id="Vector_11" d="M12.3728 20.942L11.3872 22.2996L10.9688 21.99L13.277 18.8088L13.6954 19.1184L12.7098 20.4761L16.2929 23.1375L15.9587 23.6005L12.3728 20.942Z" fill="#B84027"/>
<path id="Vector_12" d="M14.296 17.6159L16.784 15.0028L17.1519 15.3607L15.0514 17.5677L16.2729 18.7578L18.1515 16.7837L18.5194 17.1416L16.6408 19.1156L17.8932 20.3342L20.0189 18.1016L20.3868 18.4595L17.8735 21.0982L14.296 17.6159Z" fill="#B84027"/>
<path id="Vector_13" d="M18.0617 13.8298L19.4264 12.7647C20.662 11.8018 22.1671 11.9921 23.0208 13.1112L23.0292 13.1226C23.8829 14.2417 23.6919 15.7755 22.4563 16.7383L21.0916 17.8035L18.0617 13.8298ZM22.1418 16.3237C23.1359 15.5482 23.251 14.3723 22.5771 13.4918L22.5687 13.4805C21.8975 12.5999 20.735 12.404 19.7409 13.1794L18.8199 13.898L21.2208 17.0423L22.1418 16.3237Z" fill="#B84027"/>
<path id="Vector_14" d="M26.2301 11.6541L25.0029 9.01253L25.5112 8.7711L26.7215 11.3814C27.1764 12.3613 27.9458 12.6709 28.8051 12.2619C29.6335 11.8699 29.9255 11.1116 29.4622 10.1203L28.235 7.47873L28.7433 7.2373L29.9508 9.84192C30.5657 11.1655 30.1333 12.2108 29.0101 12.7448C27.9037 13.2674 26.8254 12.9379 26.2301 11.6541Z" fill="#B84027"/>
<path id="Vector_15" d="M30.5324 6.56687L32.5795 5.95619C33.1636 5.78293 33.6859 5.81985 34.0734 6.03288C34.3739 6.19762 34.6069 6.49302 34.7165 6.87363L34.7193 6.88783C34.9523 7.68597 34.5452 8.31653 33.8375 8.67725L35.8734 10.2082L35.2135 10.4042L33.2871 8.94425L31.928 9.35042L32.4728 11.2222L31.9365 11.3813L30.5324 6.56687ZM33.2478 8.42446C33.9611 8.21144 34.3626 7.68881 34.1829 7.06961L34.1801 7.05541C34.0088 6.46462 33.4556 6.24023 32.6862 6.4703L31.2176 6.90771L31.7876 8.86188L33.2478 8.42446Z" fill="#B84027"/>
<path id="Vector_16" d="M36.1626 7.59512L36.1598 7.58092C35.9801 6.21754 36.8112 4.87406 38.2855 4.67523C39.1139 4.56446 39.6586 4.73488 40.2062 5.08992L39.9029 5.56426C39.4789 5.28023 39.0268 5.10412 38.3304 5.19786C37.2409 5.34555 36.5838 6.38228 36.7298 7.49002L36.7326 7.50423C36.8899 8.6915 37.7576 9.46975 38.951 9.31069C39.5126 9.234 40.004 8.94429 40.3045 8.62049L40.1416 7.38493L38.6449 7.5866L38.5775 7.08101L40.6078 6.8055L40.8689 8.78807C40.4674 9.26241 39.8243 9.70266 38.9959 9.81628C37.4543 10.0265 36.3479 9.01814 36.1626 7.59512Z" fill="#B84027"/>
<path id="Vector_17" d="M42.1354 4.41675L45.7241 4.4764L45.7157 4.99334L42.6886 4.94221L42.6605 6.65779L45.3703 6.70324L45.3619 7.22018L42.6521 7.17474L42.624 8.93292L45.6876 8.98405L45.6792 9.50099L42.0568 9.44134L42.1354 4.41675Z" fill="#B84027"/>
<path id="Vector_18" d="M47.4398 4.61267L47.9565 4.69788L50.3996 9.17997L51.0426 5.20915L51.5818 5.2972L50.7814 10.2508L50.3406 10.1769L47.8358 5.59259L47.1787 9.65431L46.6395 9.56626L47.4398 4.61267Z" fill="#B84027"/>
<path id="Vector_19" d="M54.5808 6.70041L52.9943 6.18631L53.1515 5.6864L56.8666 6.88787L56.7094 7.38778L55.1228 6.87367L53.7693 11.1569L53.2301 10.9808L54.5808 6.70041Z" fill="#B84027"/>
<path id="Vector_20" d="M59.0625 10.5775L59.0681 10.5661C59.7561 9.32773 61.2416 8.82499 62.5136 9.54928C63.2971 9.99521 63.6116 10.5434 63.8138 11.2024L63.2774 11.3756C63.1089 10.8189 62.8394 10.3361 62.2525 10.0037C61.2949 9.45838 60.1408 9.83899 59.582 10.8445L59.5764 10.8558C59.0147 11.867 59.2955 13.0742 60.2475 13.6138C60.84 13.9518 61.3595 13.9405 61.9941 13.7757L62.1373 14.2785C61.4297 14.4858 60.7642 14.5085 59.9807 14.0626C58.7339 13.3497 58.3661 11.8329 59.0625 10.5775Z" fill="#B84027"/>
<path id="Vector_21" d="M66.9532 12.6226L67.366 12.952L66.0462 18.3374L65.5744 17.9596L65.9311 16.5536L63.811 14.8608L62.5361 15.5339L62.084 15.1732L66.9532 12.6226ZM66.0659 16.0168L66.7482 13.3014L64.2883 14.5995L66.0659 16.0168Z" fill="#B84027"/>
<path id="Vector_22" d="M70.2362 15.5056L71.6908 17.0849C72.1064 17.5365 72.3057 18.025 72.2889 18.4709C72.2777 18.8146 72.1204 19.1612 71.834 19.4282L71.8228 19.4367C71.2218 20.0047 70.4805 19.9167 69.8459 19.4367L69.4022 21.9646L68.9332 21.4562L69.3629 19.0617L68.3969 18.0108L66.9844 19.3401L66.6025 18.9254L70.2362 15.5056ZM69.8037 18.7947C70.312 19.3458 70.9551 19.4764 71.4212 19.0362L71.4324 19.0277C71.8789 18.6073 71.8284 18.008 71.2836 17.4143L70.239 16.281L68.7648 17.67L69.8037 18.7947Z" fill="#B84027"/>
<path id="Vector_23" d="M73.9818 19.8L76.0317 22.7767L75.6133 23.0721L73.8835 20.5584L72.4936 21.5383L74.0408 23.7879L73.6224 24.0833L72.0751 21.8337L70.6486 22.8392L72.4009 25.3814L71.9825 25.6768L69.9101 22.6688L73.9818 19.8Z" fill="#B84027"/>
<path id="Vector_24" d="M75.6243 27.1651L75.6383 27.1595C76.93 26.6028 78.4127 27.1169 78.9856 28.4746C79.3394 29.3125 79.2579 29.9402 79.0221 30.5878L78.4941 30.3946C78.6963 29.8465 78.7721 29.3011 78.5082 28.6734C78.0757 27.6509 76.9328 27.2418 75.8826 27.6935L75.8686 27.6991C74.8127 28.1564 74.3101 29.2841 74.7397 30.3009C75.0065 30.9343 75.4249 31.2467 76.0286 31.5081L75.8405 31.9938C75.1553 31.7211 74.6133 31.332 74.2595 30.4941C73.6895 29.1619 74.3129 27.7304 75.6243 27.1651Z" fill="#B84027"/>
<path id="Vector_25" d="M80.1319 31.8176L81.0501 35.3255L80.5559 35.459L79.7809 32.4993L78.1438 32.9396L78.8374 35.5896L78.3431 35.7231L77.6496 33.0731L75.9703 33.5218L76.7538 36.5184L76.2595 36.6519L75.3301 33.1071L80.1319 31.8176Z" fill="#B84027"/>
<path id="Vector_26" d="M81.3783 37.0469L81.4345 37.5752L77.8233 41.1597L81.7771 40.7195L81.836 41.2676L76.9022 41.8158L76.8545 41.3671L80.5499 37.6945L76.5035 38.1461L76.4445 37.5979L81.3783 37.0469Z" fill="#B84027"/>
<path id="Vector_27" d="M81.3137 44.554L81.3727 42.8696L81.8894 42.8867L81.7518 46.8291L81.2351 46.812L81.2941 45.1277L76.8517 44.9687L76.8714 44.3949L81.3137 44.554Z" fill="#B84027"/>
<path id="Vector_28" d="M81.5752 48.3969L80.9715 51.9729L80.4688 51.8848L80.9771 48.8655L79.3063 48.5787L78.8514 51.2798L78.3488 51.1918L78.8037 48.4906L77.0907 48.1952L76.5768 51.2486L76.0742 51.1605L76.6836 47.5476L81.5752 48.3969Z" fill="#B84027"/>
<path id="Vector_29" d="M80.5642 53.6486L79.9099 55.7022C79.7218 56.2901 79.3989 56.702 79.0057 56.9065C78.7025 57.0627 78.329 57.094 77.9583 56.9718L77.9443 56.9661C77.1608 56.7105 76.8772 56.0146 76.9811 55.2222L74.583 56.0601L74.7936 55.3983L77.071 54.6115L77.5062 53.2453L75.6697 52.6488L75.841 52.1091L80.5642 53.6486ZM77.5175 54.8728C77.29 55.5886 77.4922 56.2191 78.0987 56.418L78.1128 56.4236C78.6941 56.6139 79.1883 56.2759 79.4326 55.5062L79.9015 54.0321L77.9836 53.4072L77.5175 54.8728Z" fill="#B84027"/>
</g>
<g id="Group_4">
<path id="Vector_30" d="M10.8079 64.9422L11.1926 64.9791C11.1336 65.4847 11.2038 65.8795 11.4903 66.2914C11.7683 66.6918 12.1586 66.8083 12.445 66.6038L12.4534 66.5981C12.723 66.4078 12.7735 66.1493 12.4675 65.4307C12.1361 64.6439 12.1333 64.1753 12.6107 63.8373L12.6191 63.8316C13.074 63.5078 13.6974 63.6811 14.0905 64.2491C14.391 64.6837 14.4865 65.0785 14.4612 65.55L14.0737 65.533C14.1018 65.1012 14.0035 64.7547 13.7929 64.4508C13.5233 64.0645 13.147 63.9651 12.8859 64.1497L12.8774 64.1554C12.6051 64.3485 12.5573 64.6127 12.8746 65.3654C13.1948 66.1295 13.1695 66.6038 12.7286 66.9191L12.7202 66.9247C12.2232 67.277 11.6054 67.081 11.1954 66.4902C10.8612 66.0187 10.7461 65.5216 10.8079 64.9422Z" fill="#B84027"/>
<path id="Vector_31" d="M13.7985 67.0185L13.8069 67.0129C14.5679 66.3539 15.6939 66.3908 16.3819 67.2032C16.8059 67.7059 16.8873 68.1547 16.8677 68.6518L16.4633 68.6319C16.4802 68.2115 16.4156 67.8195 16.0955 67.4418C15.576 66.8311 14.7055 66.7913 14.0849 67.3281L14.0764 67.3338C13.4531 67.8735 13.3576 68.7597 13.8714 69.3675C14.1916 69.7453 14.5454 69.8731 15.0172 69.9242L14.9947 70.2992C14.4668 70.2566 14.0091 70.106 13.585 69.6033C12.9139 68.808 13.0262 67.6889 13.7985 67.0185Z" fill="#B84027"/>
<path id="Vector_32" d="M16.2474 69.876L16.2531 69.8675C16.9214 69.146 18.0502 69.0324 18.8505 69.7879C19.648 70.5463 19.6059 71.6796 18.9376 72.3982L18.932 72.4068C18.2636 73.1282 17.1348 73.2418 16.3345 72.4863C15.537 71.7279 15.5791 70.5974 16.2474 69.876ZM18.6175 72.1256L18.6259 72.117C19.1763 71.5234 19.1931 70.6259 18.5922 70.0549C17.9912 69.4869 17.1208 69.5579 16.5704 70.1515L16.5619 70.16C16.0116 70.7537 15.9947 71.6512 16.5956 72.2221C17.1938 72.7902 18.0671 72.7192 18.6175 72.1256Z" fill="#B84027"/>
<path id="Vector_33" d="M20.7092 71.5375L21.7847 72.3583C22.4333 72.8554 22.6018 73.5229 22.1806 74.0881L22.175 74.0966C21.7144 74.713 20.9591 74.6363 20.3469 74.1705L19.6505 73.6365L18.8951 74.6448L18.5722 74.3977L20.7092 71.5375ZM20.5772 73.8864C21.0517 74.25 21.5544 74.2358 21.8352 73.8609L21.8408 73.8524C22.1469 73.4434 21.9981 72.9946 21.5347 72.6424L20.8102 72.0857L19.8695 73.3439L20.5772 73.8864Z" fill="#B84027"/>
<path id="Vector_34" d="M23.3712 73.5229L25.584 74.909L25.393 75.2215L23.5257 74.0513L22.8882 75.0937L24.559 76.1389L24.3681 76.4514L22.6973 75.4061L22.043 76.4741L23.93 77.6585L23.7391 77.971L21.5067 76.5707L23.3712 73.5229Z" fill="#B84027"/>
<path id="Vector_35" d="M26.8476 77.5761L26.8504 77.5676C27.002 77.2324 27.412 77.0961 27.7378 77.2495C28.0607 77.4 28.2264 77.8062 28.0719 78.1413L28.0691 78.1499C27.9175 78.485 27.5187 78.6242 27.1818 78.468C26.8448 78.3118 26.6932 77.9113 26.8476 77.5761Z" fill="#B84027"/>
<path id="Vector_36" d="M32.7703 81.419C32.4108 81.5582 32.0009 81.5809 31.574 81.4474C30.5294 81.1208 30.0745 80.084 30.3637 79.141L30.3666 79.1325C30.653 78.1895 31.619 77.5845 32.6636 77.9112C33.7082 78.2378 34.1631 79.2745 33.8738 80.2175L33.871 80.2261C33.7391 80.6578 33.4695 81.0157 33.1072 81.2457L33.4498 81.7655L33.096 81.97L32.7703 81.419ZM32.5597 81.081L32.0879 80.3397L32.4361 80.1323L32.8938 80.9021C33.1522 80.7203 33.36 80.4476 33.4639 80.1096L33.4667 80.1011C33.7025 79.3228 33.3291 78.5105 32.5428 78.2634C31.7566 78.0163 31.0068 78.4707 30.7681 79.2461L30.7653 79.2547C30.5294 80.0329 30.9029 80.8453 31.6891 81.0924C31.9952 81.1889 32.3013 81.1747 32.5597 81.081Z" fill="#B84027"/>
<path id="Vector_37" d="M34.6459 80.6978L35.0306 78.6499L35.4294 78.7266L35.0503 80.7489C34.9071 81.5101 35.2328 82.0129 35.9096 82.1435C36.561 82.2685 37.0496 81.9561 37.1929 81.1863L37.5776 79.1384L37.9763 79.2151L37.5972 81.2318C37.4063 82.2572 36.7127 82.6775 35.8309 82.5071C34.9576 82.3424 34.4606 81.6948 34.6459 80.6978Z" fill="#B84027"/>
<path id="Vector_38" d="M39.9866 79.3969L40.3657 79.4281L41.6968 83.166L41.2615 83.1291L40.9217 82.1492L38.9701 81.9816L38.4675 82.8905L38.0519 82.8564L39.9866 79.3969ZM40.7926 81.7742L40.1327 79.8825L39.1611 81.6351L40.7926 81.7742Z" fill="#B84027"/>
<path id="Vector_39" d="M42.5616 79.5871L42.9688 79.5814L43.0194 82.7939L45.044 82.7626L45.0496 83.1376L42.6178 83.1773L42.5616 79.5871Z" fill="#B84027"/>
<path id="Vector_40" d="M45.7011 79.4906L46.1055 79.4622L46.361 83.0382L45.9566 83.0666L45.7011 79.4906Z" fill="#B84027"/>
<path id="Vector_41" d="M48.0602 79.6298L46.864 79.7945L46.8134 79.4253L49.6159 79.0361L49.6664 79.4054L48.4702 79.5701L48.9026 82.7513L48.4955 82.8081L48.0602 79.6298Z" fill="#B84027"/>
<path id="Vector_42" d="M51.8143 80.7658L49.8683 79.002L50.3485 78.8883L51.935 80.354L52.7213 78.326L53.1818 78.218L52.213 80.6692L52.536 82.0553L52.1344 82.1491L51.8143 80.7658Z" fill="#B84027"/>
<path id="Vector_43" d="M55.748 79.2293L55.7452 79.2207C55.6188 78.8742 55.8098 78.4851 56.1468 78.3601C56.4781 78.2351 56.8797 78.4027 57.006 78.7464L57.0088 78.7549C57.1352 79.1014 56.9527 79.4849 56.6073 79.6155C56.2619 79.7462 55.8744 79.5729 55.748 79.2293Z" fill="#B84027"/>
<path id="Vector_44" d="M59.8117 78.9424L59.9016 78.5618C60.3874 78.6896 60.7833 78.6726 61.227 78.4425C61.6566 78.2181 61.8251 77.8432 61.665 77.5279L61.6594 77.5194C61.5078 77.224 61.2635 77.1388 60.5194 77.3461C59.7022 77.5705 59.2445 77.508 58.9777 76.9854L58.9721 76.9769C58.7166 76.477 58.9749 75.8748 59.5814 75.5595C60.0476 75.3181 60.4492 75.2755 60.9041 75.3664L60.8339 75.7527C60.4126 75.6646 60.0644 75.7157 59.7331 75.8862C59.3175 76.102 59.1687 76.4684 59.3119 76.7553L59.3175 76.7638C59.4691 77.0649 59.7219 77.1473 60.4997 76.9314C61.2916 76.7155 61.7521 76.8036 61.9992 77.2921L62.0048 77.3007C62.2828 77.846 62.0048 78.4397 61.3702 78.772C60.8704 79.0361 60.3705 79.0844 59.8117 78.9424Z" fill="#B84027"/>
<path id="Vector_45" d="M62.4738 73.9149L62.7939 73.7075L66.1074 75.8463L65.7396 76.0849L64.8775 75.5197L63.2291 76.5933L63.378 77.6244L63.027 77.8516L62.4738 73.9149ZM64.5489 75.2981L62.8837 74.2074L63.1702 76.1957L64.5489 75.2981Z" fill="#B84027"/>
<path id="Vector_46" d="M64.6248 72.4691L66.6466 70.8387L66.8768 71.1313L65.1723 72.506L65.9614 73.5058L67.4834 72.276L67.7108 72.5657L66.1888 73.7956L67.152 75.0169L66.8347 75.2725L64.6248 72.4691Z" fill="#B84027"/>
<path id="Vector_47" d="M67.1376 70.3929L69.0134 68.5693L69.2662 68.8363L67.6824 70.373L68.522 71.2563L69.9373 69.8816L70.19 70.1486L68.7748 71.5233L69.634 72.4294L71.2346 70.8729L71.4874 71.1399L69.5919 72.9804L67.1376 70.3929Z" fill="#B84027"/>
<path id="Vector_48" d="M70.401 67.5582L69.6119 68.4813L69.3311 68.2371L71.1816 66.0756L71.4624 66.3198L70.6706 67.2429L73.0715 69.3448L72.8019 69.6601L70.401 67.5582Z" fill="#B84027"/>
<path id="Vector_49" d="M73.964 65.8967L71.3525 65.8768L71.6389 65.4706L73.7871 65.5076L73.0486 63.4625L73.3209 63.0734L74.1971 65.5587L75.3456 66.3824L75.1069 66.7204L73.964 65.8967Z" fill="#B84027"/>
</g>
</g>
</g>
<g id="Group_5">
<path id="Vector_50" d="M75.2227 60.5366V60.5252C75.2227 60.156 75.5372 59.8606 75.8966 59.8606C76.2504 59.8606 76.5705 60.1588 76.5705 60.5252V60.5366C76.5705 60.9058 76.2673 61.2012 75.8966 61.2012C75.5259 61.2012 75.2227 60.9058 75.2227 60.5366Z" fill="#B84027"/>
</g>
<g id="Group_6">
<path id="Vector_51" d="M9.30859 59.7414V59.7301C9.30859 59.3608 9.62311 59.0654 9.98254 59.0654C10.3364 59.0654 10.6565 59.3637 10.6565 59.7301V59.7414C10.6565 60.1107 10.3532 60.4061 9.98254 60.4061C9.61187 60.4061 9.30859 60.1078 9.30859 59.7414Z" fill="#B84027"/>
</g>
<g id="Group_7">
<path id="Vector_52" d="M58.6331 27.6198L55.7155 27.5715L52.2447 36.922H48.6054V40.1515L54.4659 40.1004L57.0971 32.2269L62.3959 46.8405L65.336 45.5766L58.6331 27.6198Z" fill="#FBB615"/>
<path id="Vector_53" d="M30.8864 47.1755C26.84 47.1755 23.5489 43.8466 23.5489 39.7537V29.5653H26.7417V39.7537C26.7417 42.0657 28.6006 43.946 30.8864 43.946C33.1722 43.946 35.0283 42.0657 35.0283 39.7537V29.5653H38.2211V39.7537C38.2239 43.8466 34.93 47.1755 30.8864 47.1755Z" fill="#E02D28"/>
<path id="Vector_54" d="M46.1343 47.2977C41.1808 47.2977 37.1512 43.2218 37.1512 38.2114C37.1512 33.201 41.1808 29.1251 46.1343 29.1251C48.4369 29.1251 50.6244 30.0056 52.298 31.6019L50.1049 33.9537C49.0266 32.9255 47.617 32.3603 46.1343 32.3603C42.9443 32.3603 40.3468 34.9848 40.3468 38.2143C40.3468 41.4409 42.9415 44.0682 46.1343 44.0682C47.6226 44.0682 49.035 43.4973 50.1133 42.4634L52.3121 44.8096C50.6385 46.4115 48.4425 47.2977 46.1343 47.2977Z" fill="#E17C35"/>
</g>
<g id="Group_8">
<path id="Vector_55" d="M23.9445 52.7683V50.9789H24.287V52.7456C24.287 53.4102 24.6352 53.7823 25.2165 53.7823C25.7781 53.7823 26.1348 53.4386 26.1348 52.7683V50.9789H26.4773V52.7427C26.4773 53.6403 25.9691 54.1061 25.2081 54.1061C24.4583 54.1033 23.9445 53.6375 23.9445 52.7683Z" fill="#010101"/>
<path id="Vector_56" d="M28.1622 50.9789H29.4707C29.8442 50.9789 30.1447 51.0925 30.3356 51.2856C30.4845 51.4362 30.5715 51.6492 30.5715 51.8935V51.902C30.5715 52.4104 30.2233 52.7115 29.7459 52.7996L30.681 54.0578H30.2598L29.3781 52.862H28.5076V54.0578H28.165V50.9789H28.1622ZM29.4398 52.5468C29.8948 52.5468 30.2233 52.3082 30.2233 51.9134V51.9048C30.2233 51.5271 29.9369 51.297 29.4455 51.297H28.5076V52.5439H29.4398V52.5468Z" fill="#010101"/>
<path id="Vector_57" d="M32.0402 52.5268V52.5183C32.0402 51.6747 32.6523 50.9277 33.5649 50.9277C34.0788 50.9277 34.3962 51.0783 34.6994 51.3367L34.4776 51.6009C34.2417 51.3936 33.9834 51.2487 33.5509 51.2487C32.877 51.2487 32.394 51.8253 32.394 52.5098V52.5183C32.394 53.2511 32.8601 53.7965 33.5986 53.7965C33.9468 53.7965 34.267 53.6602 34.4776 53.4897V52.7257H33.5509V52.4132H34.8061V53.6403C34.5225 53.8959 34.0985 54.1118 33.5846 54.1118C32.6299 54.1089 32.0402 53.4045 32.0402 52.5268Z" fill="#010101"/>
<path id="Vector_58" d="M36.4512 50.9789H38.6499V51.2942H36.7937V52.3451H38.4533V52.6604H36.7937V53.7369H38.6724V54.0522H36.4512V50.9789Z" fill="#010101"/>
<path id="Vector_59" d="M40.2313 50.9789H40.5514L42.4694 53.4443V50.9789H42.8035V54.055H42.5311L40.5655 51.5327V54.055H40.2313V50.9789Z" fill="#010101"/>
<path id="Vector_60" d="M45.3395 51.2998H44.3174V50.9789H46.7071V51.2998H45.6849V54.055H45.3367V51.2998H45.3395Z" fill="#010101"/>
<path id="Vector_61" d="M50.259 52.5268V52.5183C50.259 51.6492 50.902 50.9277 51.7978 50.9277C52.351 50.9277 52.6796 51.1266 52.9828 51.4163L52.7498 51.6719C52.4942 51.4248 52.2078 51.2515 51.7922 51.2515C51.1183 51.2515 50.6156 51.8054 50.6156 52.5127V52.5212C50.6156 53.2341 51.1239 53.7908 51.7922 53.7908C52.2106 53.7908 52.483 53.6289 52.7751 53.3477L52.9997 53.5721C52.6824 53.8987 52.3342 54.1118 51.7838 54.1118C50.9077 54.1089 50.259 53.4102 50.259 52.5268Z" fill="#010101"/>
<path id="Vector_62" d="M55.5972 50.9562H55.9173L57.3045 54.055H56.9338L56.5772 53.2427H54.9204L54.561 54.055H54.21L55.5972 50.9562ZM56.4424 52.9302L55.7516 51.3624L55.0552 52.9302H56.4424Z" fill="#010101"/>
<path id="Vector_63" d="M58.7734 50.9789H60.082C60.4555 50.9789 60.7559 51.0925 60.9469 51.2856C61.0957 51.4362 61.1828 51.6492 61.1828 51.8935V51.902C61.1828 52.4104 60.8346 52.7115 60.3572 52.7996L61.2923 54.0578H60.8711L59.9893 52.862H59.1188V54.0578H58.7762V50.9789H58.7734ZM60.0511 52.5468C60.506 52.5468 60.8346 52.3082 60.8346 51.9134V51.9048C60.8346 51.5271 60.5481 51.297 60.0567 51.297H59.1188V52.5439H60.0511V52.5468Z" fill="#010101"/>
<path id="Vector_64" d="M62.7861 50.9789H64.9849V51.2942H63.1287V52.3451H64.7883V52.6604H63.1287V53.7369H65.0073V54.0522H62.7861V50.9789Z" fill="#010101"/>
<path id="Vector_65" d="M24.6577 56.2335H24.9778L26.365 59.3324H25.9944L25.6377 58.52H23.9809L23.6215 59.3324H23.2705L24.6577 56.2335ZM25.5057 58.2047L24.815 56.6368L24.1186 58.2047H25.5057Z" fill="#010101"/>
<path id="Vector_66" d="M27.5753 58.8835L27.7887 58.6279C28.106 58.9176 28.4093 59.0624 28.8305 59.0624C29.2377 59.0624 29.5073 58.8437 29.5073 58.5398V58.5313C29.5073 58.2473 29.3556 58.0825 28.7154 57.9462C28.0162 57.7928 27.6933 57.5627 27.6933 57.0572V57.0486C27.6933 56.5658 28.1145 56.2079 28.6929 56.2079C29.1366 56.2079 29.4539 56.3357 29.7628 56.5856L29.5634 56.8526C29.2826 56.6197 28.999 56.5175 28.6845 56.5175C28.2886 56.5175 28.0358 56.7362 28.0358 57.0145V57.0231C28.0358 57.3128 28.1931 57.4747 28.8614 57.6195C29.5382 57.7701 29.8527 58.02 29.8527 58.4887V58.4972C29.8527 59.0255 29.4174 59.3664 28.8137 59.3664C28.3363 59.3749 27.9404 59.213 27.5753 58.8835Z" fill="#010101"/>
<path id="Vector_67" d="M31.1837 58.8835L31.3971 58.6279C31.7144 58.9176 32.0177 59.0624 32.4389 59.0624C32.846 59.0624 33.1156 58.8437 33.1156 58.5398V58.5313C33.1156 58.2473 32.964 58.0825 32.3237 57.9462C31.6245 57.7928 31.3016 57.5627 31.3016 57.0572V57.0486C31.3016 56.5658 31.7228 56.2079 32.3013 56.2079C32.7449 56.2079 33.0623 56.3357 33.3711 56.5856L33.1718 56.8526C32.891 56.6197 32.6074 56.5175 32.2929 56.5175C31.8969 56.5175 31.6442 56.7362 31.6442 57.0145V57.0231C31.6442 57.3128 31.8014 57.4747 32.4698 57.6195C33.1465 57.7701 33.461 58.02 33.461 58.4887V58.4972C33.461 59.0255 33.0257 59.3664 32.422 59.3664C31.9418 59.3749 31.5487 59.213 31.1837 58.8835Z" fill="#010101"/>
<path id="Vector_68" d="M34.8984 57.8014V57.7929C34.8984 56.9436 35.5275 56.2023 36.4541 56.2023C37.3808 56.2023 38.0014 56.9351 38.0014 57.7844V57.7929C38.0014 58.6421 37.3724 59.3835 36.4457 59.3835C35.519 59.3835 34.8984 58.6507 34.8984 57.8014ZM37.6448 57.8014V57.7929C37.6448 57.0941 37.1421 56.5232 36.4457 56.5232C35.7493 56.5232 35.2551 57.0856 35.2551 57.7844V57.7929C35.2551 58.4916 35.7577 59.0625 36.4541 59.0625C37.1505 59.0625 37.6448 58.5001 37.6448 57.8014Z" fill="#010101"/>
<path id="Vector_69" d="M39.4619 57.8014V57.7929C39.4619 56.9237 40.105 56.2023 41.0008 56.2023C41.5539 56.2023 41.8825 56.4011 42.1858 56.6908L41.9527 56.9464C41.6971 56.6993 41.4107 56.5261 40.9951 56.5261C40.3212 56.5261 39.8185 57.0799 39.8185 57.7872V57.7957C39.8185 58.5086 40.3268 59.0654 40.9951 59.0654C41.4135 59.0654 41.6859 58.9035 41.978 58.6223L42.2026 58.8466C41.8853 59.1733 41.5371 59.3863 40.9867 59.3863C40.1106 59.3835 39.4619 58.6847 39.4619 57.8014Z" fill="#010101"/>
<path id="Vector_70" d="M43.705 56.2534H44.0475V59.3295H43.705V56.2534Z" fill="#010101"/>
<path id="Vector_71" d="M46.9342 56.2335H47.2543L48.6415 59.3324H48.2708L47.9142 58.52H46.2603L45.9008 59.3324H45.5498L46.9342 56.2335ZM47.7822 58.2047L47.0915 56.6368L46.395 58.2047H47.7822Z" fill="#010101"/>
<path id="Vector_72" d="M50.5261 56.5744H49.5039V56.2534H51.8936V56.5744H50.8714V59.3295H50.5232V56.5744H50.5261Z" fill="#010101"/>
<path id="Vector_73" d="M53.4375 56.2534H53.7801V59.3295H53.4375V56.2534Z" fill="#010101"/>
<path id="Vector_74" d="M55.4062 57.8014V57.7929C55.4062 56.9436 56.0352 56.2023 56.9619 56.2023C57.8885 56.2023 58.5091 56.9351 58.5091 57.7844V57.7929C58.5091 58.6421 57.8801 59.3835 56.9534 59.3835C56.0268 59.3835 55.4062 58.6507 55.4062 57.8014ZM58.1525 57.8014V57.7929C58.1525 57.0941 57.6498 56.5232 56.9534 56.5232C56.257 56.5232 55.7628 57.0856 55.7628 57.7844V57.7929C55.7628 58.4916 56.2655 59.0625 56.9619 59.0625C57.6555 59.0625 58.1525 58.5001 58.1525 57.8014Z" fill="#010101"/>
<path id="Vector_75" d="M60.1045 56.2534H60.4246L62.3425 58.7188V56.2534H62.6767V59.3295H62.4043L60.4387 56.8073V59.3295H60.1045V56.2534Z" fill="#010101"/>
<path id="Vector_76" d="M64.0996 56.9833V56.9776C64.0996 56.5601 64.4338 56.2079 64.855 56.2079C65.2818 56.2079 65.6103 56.5544 65.6103 56.9719V56.9776C65.6103 57.3952 65.2762 57.7474 64.855 57.7474C64.4281 57.7502 64.0996 57.4008 64.0996 56.9833ZM65.5233 56.9805V56.9748C65.5233 56.6027 65.2369 56.2931 64.855 56.2931C64.4759 56.2931 64.1867 56.6055 64.1867 56.9776V56.9833C64.1867 57.3554 64.4731 57.665 64.855 57.665C65.2313 57.665 65.5233 57.3526 65.5233 56.9805ZM64.5601 56.5743H64.9083C65.0768 56.5743 65.2032 56.6567 65.2032 56.8214C65.2032 56.9492 65.1302 57.0287 65.0263 57.0572L65.2313 57.3526H65.0543L64.8718 57.0856H64.7118V57.3526H64.5629V56.5743H64.5601ZM64.8943 56.9634C64.9954 56.9634 65.0515 56.9095 65.0515 56.8356C65.0515 56.7532 64.9954 56.7078 64.8943 56.7078H64.7061V56.9634H64.8943Z" fill="#010101"/>
</g>
</g>
</svg>
