<svg width="21" height="32" viewBox="0 0 21 32" fill="none" xmlns="http://www.w3.org/2000/svg">
<path id="Vector" d="M7.27273 27.6364H13.0909V26.1818H7.27273V27.6364ZM2.90909 32C2.10909 32 1.424 31.7149 0.85382 31.1447C0.283639 30.5745 -0.000967227 29.8899 2.46952e-06 29.0909V2.90909C2.46952e-06 2.10909 0.285093 1.424 0.855275 0.853821C1.42546 0.283639 2.11006 -0.000967227 2.90909 2.46952e-06H17.4545C18.2545 2.46952e-06 18.9396 0.285093 19.5098 0.855275C20.08 1.42546 20.3646 2.11006 20.3636 2.90909V29.0909C20.3636 29.8909 20.0785 30.576 19.5084 31.1462C18.9382 31.7164 18.2536 32.001 17.4545 32H2.90909ZM2.90909 24.7273V29.0909H17.4545V24.7273H2.90909ZM2.90909 21.8182H17.4545V7.27273H2.90909V21.8182ZM2.90909 4.36364H17.4545V2.90909H2.90909V4.36364Z" fill="black"/>
</svg>
