<svg width="40" height="41" viewBox="0 0 40 41" fill="none" xmlns="http://www.w3.org/2000/svg">
<path id="Union" fill-rule="evenodd" clip-rule="evenodd" d="M30 2.96582C30 1.86125 29.1046 0.96582 28 0.96582C26.8954 0.96582 26 1.86125 26 2.96582V4.56738H14V2.96582C14 1.86125 13.1046 0.96582 12 0.96582C10.8954 0.96582 10 1.86125 10 2.96582V4.56738H6.00006C2.88987 4.56738 0 6.88139 0 10.1672V17.3652V35.3659C0 38.6517 2.88987 40.9657 6.00006 40.9657H34.0005C37.1106 40.9657 40.0005 38.6517 40.0005 35.3659V17.3652V10.1672C40.0005 6.88139 37.1106 4.56738 34.0005 4.56738H30V2.96582ZM36.0005 15.3652V10.1672C36.0005 9.47676 35.3086 8.56738 34.0005 8.56738H30V10.1671C30 11.2716 29.1046 12.1671 28 12.1671C26.8954 12.1671 26 11.2716 26 10.1671V8.56738H14V10.1671C14 11.2716 13.1046 12.1671 12 12.1671C10.8954 12.1671 10 11.2716 10 10.1671V8.56738H6.00006C4.6919 8.56738 4 9.47676 4 10.1672V15.3652H36.0005ZM4 19.3652H36.0005V35.3659C36.0005 36.0564 35.3086 36.9657 34.0005 36.9657H6.00006C4.6919 36.9657 4 36.0564 4 35.3659V19.3652Z" fill="#B70022"/>
</svg>
